<mxfile host="Electron" agent="Mozilla/5.0 (Windows NT 10.0; Win64; x64) AppleWebKit/537.36 (KHTML, like Gecko) draw.io/24.7.8 Chrome/128.0.6613.36 Electron/32.0.1 Safari/537.36" version="24.7.8">
  <diagram name="Turn_100" id="PQzklV0YbumEGE-wvusD">
    <mxGraphModel dx="3453" dy="2020" grid="1" gridSize="10" guides="1" tooltips="1" connect="1" arrows="1" fold="1" page="1" pageScale="1" pageWidth="850" pageHeight="1100" math="0" shadow="0">
      <root>
        <mxCell id="0" />
        <mxCell id="1" parent="0" />
        <mxCell id="OlB7hf9cxHwh0th_6qem-2" value="Ask user to enter their name" style="whiteSpace=wrap;strokeWidth=2;" vertex="1" parent="1">
          <mxGeometry x="578" y="375" width="222" height="33" as="geometry" />
        </mxCell>
        <mxCell id="OlB7hf9cxHwh0th_6qem-3" value="Loop: Ask for valid age input" style="whiteSpace=wrap;strokeWidth=2;" vertex="1" parent="1">
          <mxGeometry x="579" y="459" width="220" height="33" as="geometry" />
        </mxCell>
        <mxCell id="OlB7hf9cxHwh0th_6qem-4" value="Is age a number?" style="rhombus;strokeWidth=2;whiteSpace=wrap;" vertex="1" parent="1">
          <mxGeometry x="857" y="542" width="168" height="168" as="geometry" />
        </mxCell>
        <mxCell id="OlB7hf9cxHwh0th_6qem-5" value="Print: Invalid input" style="whiteSpace=wrap;strokeWidth=2;" vertex="1" parent="1">
          <mxGeometry x="504" y="881" width="150" height="33" as="geometry" />
        </mxCell>
        <mxCell id="OlB7hf9cxHwh0th_6qem-6" value="Is age between 0 and 150?" style="rhombus;strokeWidth=2;whiteSpace=wrap;" vertex="1" parent="1">
          <mxGeometry x="823" y="779" width="237" height="237" as="geometry" />
        </mxCell>
        <mxCell id="OlB7hf9cxHwh0th_6qem-7" value="Print: Please enter a valid age" style="whiteSpace=wrap;strokeWidth=2;" vertex="1" parent="1">
          <mxGeometry x="587" y="1084" width="232" height="33" as="geometry" />
        </mxCell>
        <mxCell id="OlB7hf9cxHwh0th_6qem-8" value="Break loop and proceed" style="whiteSpace=wrap;strokeWidth=2;" vertex="1" parent="1">
          <mxGeometry x="869" y="1084" width="185" height="33" as="geometry" />
        </mxCell>
        <mxCell id="OlB7hf9cxHwh0th_6qem-9" value="Get current year using datetime" style="whiteSpace=wrap;strokeWidth=2;" vertex="1" parent="1">
          <mxGeometry x="838" y="1167" width="246" height="33" as="geometry" />
        </mxCell>
        <mxCell id="OlB7hf9cxHwh0th_6qem-10" value="Calculate year_when_100 = current year + (100 - age)" style="whiteSpace=wrap;strokeWidth=2;" vertex="1" parent="1">
          <mxGeometry x="767" y="1251" width="390" height="33" as="geometry" />
        </mxCell>
        <mxCell id="OlB7hf9cxHwh0th_6qem-11" value="Print final message with name and year" style="whiteSpace=wrap;strokeWidth=2;" vertex="1" parent="1">
          <mxGeometry x="812" y="1334" width="299" height="33" as="geometry" />
        </mxCell>
        <mxCell id="OlB7hf9cxHwh0th_6qem-13" value="" style="curved=1;startArrow=none;endArrow=block;exitX=0.5;exitY=1;entryX=0.5;entryY=0.01;rounded=0;exitDx=0;exitDy=0;" edge="1" parent="1" source="OlB7hf9cxHwh0th_6qem-26" target="OlB7hf9cxHwh0th_6qem-2">
          <mxGeometry relative="1" as="geometry">
            <Array as="points" />
            <mxPoint x="688.5098039215686" y="325" as="sourcePoint" />
          </mxGeometry>
        </mxCell>
        <mxCell id="OlB7hf9cxHwh0th_6qem-14" value="" style="curved=1;startArrow=none;endArrow=block;exitX=0.5;exitY=1.02;entryX=0.5;entryY=-0.01;rounded=0;" edge="1" parent="1" source="OlB7hf9cxHwh0th_6qem-2" target="OlB7hf9cxHwh0th_6qem-3">
          <mxGeometry relative="1" as="geometry">
            <Array as="points" />
          </mxGeometry>
        </mxCell>
        <mxCell id="OlB7hf9cxHwh0th_6qem-15" value="" style="curved=1;startArrow=none;endArrow=block;exitX=0.96;exitY=1.01;entryX=0.5;entryY=0;rounded=0;" edge="1" parent="1" source="OlB7hf9cxHwh0th_6qem-3" target="OlB7hf9cxHwh0th_6qem-4">
          <mxGeometry relative="1" as="geometry">
            <Array as="points">
              <mxPoint x="941" y="517" />
            </Array>
          </mxGeometry>
        </mxCell>
        <mxCell id="OlB7hf9cxHwh0th_6qem-16" value="No" style="curved=1;startArrow=none;endArrow=block;exitX=0;exitY=0.69;entryX=0.53;entryY=-0.01;rounded=0;" edge="1" parent="1" source="OlB7hf9cxHwh0th_6qem-4" target="OlB7hf9cxHwh0th_6qem-5">
          <mxGeometry x="-0.3022" y="6" relative="1" as="geometry">
            <Array as="points">
              <mxPoint x="619" y="745" />
            </Array>
            <mxPoint as="offset" />
          </mxGeometry>
        </mxCell>
        <mxCell id="OlB7hf9cxHwh0th_6qem-17" value="" style="curved=1;startArrow=none;endArrow=block;exitX=0.49;exitY=-0.01;entryX=0.27;entryY=1.01;rounded=0;" edge="1" parent="1" source="OlB7hf9cxHwh0th_6qem-5" target="OlB7hf9cxHwh0th_6qem-3">
          <mxGeometry relative="1" as="geometry">
            <Array as="points">
              <mxPoint x="564" y="745" />
              <mxPoint x="564" y="517" />
            </Array>
          </mxGeometry>
        </mxCell>
        <mxCell id="OlB7hf9cxHwh0th_6qem-18" value="Yes" style="curved=1;startArrow=none;endArrow=block;exitX=0.5;exitY=1;entryX=0.5;entryY=0;rounded=0;" edge="1" parent="1" source="OlB7hf9cxHwh0th_6qem-4" target="OlB7hf9cxHwh0th_6qem-6">
          <mxGeometry relative="1" as="geometry">
            <Array as="points" />
          </mxGeometry>
        </mxCell>
        <mxCell id="OlB7hf9cxHwh0th_6qem-19" value="No" style="curved=1;startArrow=none;endArrow=block;exitX=0.08;exitY=1;entryX=0.65;entryY=0;rounded=0;" edge="1" parent="1" source="OlB7hf9cxHwh0th_6qem-6" target="OlB7hf9cxHwh0th_6qem-7">
          <mxGeometry relative="1" as="geometry">
            <Array as="points">
              <mxPoint x="812" y="1050" />
            </Array>
          </mxGeometry>
        </mxCell>
        <mxCell id="OlB7hf9cxHwh0th_6qem-20" value="" style="curved=1;startArrow=none;endArrow=block;exitX=0.48;exitY=0;entryX=0.5;entryY=1.01;rounded=0;" edge="1" parent="1" source="OlB7hf9cxHwh0th_6qem-7" target="OlB7hf9cxHwh0th_6qem-3">
          <mxGeometry relative="1" as="geometry">
            <Array as="points">
              <mxPoint x="689" y="1050" />
            </Array>
          </mxGeometry>
        </mxCell>
        <mxCell id="OlB7hf9cxHwh0th_6qem-21" value="Yes" style="curved=1;startArrow=none;endArrow=block;exitX=0.57;exitY=1;entryX=0.5;entryY=0;rounded=0;" edge="1" parent="1" source="OlB7hf9cxHwh0th_6qem-6" target="OlB7hf9cxHwh0th_6qem-8">
          <mxGeometry relative="1" as="geometry">
            <Array as="points">
              <mxPoint x="962" y="1050" />
            </Array>
          </mxGeometry>
        </mxCell>
        <mxCell id="OlB7hf9cxHwh0th_6qem-22" value="" style="curved=1;startArrow=none;endArrow=block;exitX=0.5;exitY=1.01;entryX=0.5;entryY=0.01;rounded=0;" edge="1" parent="1" source="OlB7hf9cxHwh0th_6qem-8" target="OlB7hf9cxHwh0th_6qem-9">
          <mxGeometry relative="1" as="geometry">
            <Array as="points" />
          </mxGeometry>
        </mxCell>
        <mxCell id="OlB7hf9cxHwh0th_6qem-23" value="" style="curved=1;startArrow=none;endArrow=block;exitX=0.5;exitY=1.03;entryX=0.5;entryY=0;rounded=0;" edge="1" parent="1" source="OlB7hf9cxHwh0th_6qem-9" target="OlB7hf9cxHwh0th_6qem-10">
          <mxGeometry relative="1" as="geometry">
            <Array as="points" />
          </mxGeometry>
        </mxCell>
        <mxCell id="OlB7hf9cxHwh0th_6qem-24" value="" style="curved=1;startArrow=none;endArrow=block;exitX=0.5;exitY=1.01;entryX=0.5;entryY=0.01;rounded=0;" edge="1" parent="1" source="OlB7hf9cxHwh0th_6qem-10" target="OlB7hf9cxHwh0th_6qem-11">
          <mxGeometry relative="1" as="geometry">
            <Array as="points" />
          </mxGeometry>
        </mxCell>
        <mxCell id="OlB7hf9cxHwh0th_6qem-25" value="" style="curved=1;startArrow=none;endArrow=block;exitX=0.5;exitY=1.02;entryX=0.5;entryY=0;rounded=0;entryDx=0;entryDy=0;" edge="1" parent="1" source="OlB7hf9cxHwh0th_6qem-11" target="OlB7hf9cxHwh0th_6qem-27">
          <mxGeometry relative="1" as="geometry">
            <Array as="points" />
            <mxPoint x="961.5" y="1418" as="targetPoint" />
          </mxGeometry>
        </mxCell>
        <mxCell id="OlB7hf9cxHwh0th_6qem-26" value="&lt;font style=&quot;font-size: 24px;&quot;&gt;Start&lt;/font&gt;" style="ellipse;whiteSpace=wrap;html=1;fillColor=#008a00;fontColor=#ffffff;strokeColor=#005700;" vertex="1" parent="1">
          <mxGeometry x="596.87" y="235" width="184.25" height="83" as="geometry" />
        </mxCell>
        <mxCell id="OlB7hf9cxHwh0th_6qem-27" value="&lt;font style=&quot;font-size: 24px;&quot;&gt;End&lt;/font&gt;" style="ellipse;whiteSpace=wrap;html=1;fillColor=#e51400;fontColor=#ffffff;strokeColor=#B20000;" vertex="1" parent="1">
          <mxGeometry x="869.87" y="1482" width="184.25" height="83" as="geometry" />
        </mxCell>
        <mxCell id="OlB7hf9cxHwh0th_6qem-28" value="" style="shape=image;verticalLabelPosition=bottom;labelBackgroundColor=default;verticalAlign=top;aspect=fixed;imageAspect=0;image=data:image/png,iVBORw0KGgoAAAANSUhEUgAABBoAAAH/CAYAAAD5bb7JAAAAAXNSR0IArs4c6QAAAARnQU1BAACxjwv8YQUAAAAJcEhZcwAADsMAAA7DAcdvqGQAAKThSURBVHhe7P1BbNtYni/6f/vP7fTmvsBBpRPkoXXDDgwvCjUdZDiXGPRkpQLRt4ygxkgW7++HAthhZQoaqAIjG5cb48qmYCTCEJlENQSCl/kvErgLgfP6EeEq0xjwFsdIT8ELw0gzl40E5XYQw+9uurdC/xeHlEiKskWKkmXr+wEEJNQRfUQeUuSP5/zOD16/fv1npJw5cya9iIiIiIiIiIjoQP+f9AIiIiIiIiIioqIYaCAiIiIiIiKi0jDQQERERERERESlYaCBiIiIiIiIiErDQAMRERERERERlYaBBiIiIiIiIiIqDQMNRERERERERFQaBhqIiIiIiIiIqDQMNBARERERERFRaRhoICIiIiIiIqLSMNBARERERERERKVhoIGIiIiIiIiISsNAAxERERERERGVhoEGIiIiIiIiIioNAw1EREREREREVBoGGoiIiIiIiIioNAw0EBEREREREVFpGGggIiIiIiIiotIw0EBEREREREREpWGggXpwYKgSJEmFGaTfIzru2P6JiIiIiIoaLNAQvIBr3ERTuoLl2OuJky54/DjGMb8JcdZgeQDgob5yBHdo8BRPVNEem+ZO+l0aENs/ERERERH1UjzQEDxFU76N59Yb7Kbfo3wCE4aqQjKGdENTZP3VWegKAChoLFTT7469PftbbHri37v1J3iZLnCcRAE/9YgG+Yq0zzyKrP+It38iIiIiosNUONDwcuVRO8Aw07iDpdbj9usyr8vzebUFywvvioeh0PqraLottFouapX0e+PvhPbXmFHEv6cal3E+XeAY2bO/EQG/vLt4XBRqnzkUWv/Rbv9ERERERIepYKDhBbas8J/KVfxN7VTqfaJDVvkIl10R+DLYPomIiIiIiEamYKChT8HTdv6GJ05y3PyydAVN4yn20p8BsOfcRTNWblm6iabxIlnWudsef//SuNku98QR70V/t5Tx+YEjul5LUvulRYGWLgEc04CqdspKkgrDdJAYzu4YnfejlVla4m9IkgQ1axB8YIaJ6sKXqsJwUuUKrT+Amai3eGX3OHdgRJ93DKjh9zSdZP0K17+QF3iSyheyLF3BsprRzgq0nz0zLKc+xR7in7uCZfUu3B5foa/2jJzHS1j/ZekK7tXftFexqSW/O9t/nvUf9fZPRERERDQehhtoiPOfoik/ao+bB4Bd6xHuGS9ihXbgqldwT3NT3cDfYNe6jXvS3e6x9qv/hFUrutF6g81bN9HU3Pawjt36P/W8AexH4BiQZK3vrteOIUOrW0gW92DVNcjZdyz5OAYkuR4mqgt5HixNzjcGvSxbK1A1C6I6HuprJsz5Tv28+goStRq3+hdpP963+Eb9PPY5AJ6L53I6R0KB9hzp63gZPrb/Axz19k9ERERENAQ5Ag3xp8W3sRkt9h7hXuwJaubTYwCb9UfYVVTM+Y+x1LqDS+H4eVjr7ZutPfOf8Dy8AJ/Sb+B6mPPhuq2GJVyspm60dr03mGrcwZJ/FVMA4L3BrnIV11s3MAOIm7pXiY/0LzAxr1kAFOi2j1arFb58NPR04YgCvWHD96OyLbR8GzoAWLc6Wfqrzc77drgy3Y79DfFyEwPEHRiaBUBHw4/Vx7dF4rqB119Bze285zeindSbZ1nwlAb8VvQd66h7OuxWC+LPbsJv36jnqH8hF3C5nSsk2v/7K9Z+RD6EqUbYRqPPAti81Wn/Rdpz5MDjpfpZOyfK9cbZ9udm7E6ulIGHjbD9x97LNl7tn4iIiIhoPOQINAxKxZz7Gc5XAOAUzs9FN0ffYy8AgB28XA2fECtX8XHzAk6EJU5UP8NcdGMTC0wIKn6WupmaWfwIJ/AjTB18n7CvwF6FB0BpPESzmrwhkWP/i6s2XTRrVVQSxauY7Xlj1r/AvAULChp+E7X4H6hU0XzYgAIPq/ao71QUNB7WUME5TIfbW2ksICsf6HjWv2D70W/AqIVttPIRfhbtX+/7MNBQtD1HDjpeho/tvx9Hvf0TEREREZUvR6Chx9Ni5Wr7Se1S6zGW3I/aN1QJ+sVE5v8Tta/Cz3wFtQIgeNHpJj5zqmsdJ6ajGy0XW/EexsqZVNmzmDqXWFDYqy0PgII5LU/a+awx6vuNae+fqI+Hutw9jlyS6/AAeFtdj9+HS5lDcvPoWOyRpn8861+k/ZzFpYULiSWd9hkGAoq258hBx8sIsP334ai3fyIiIiKiIcgRaBidqekfpRcdggD+JgDMQM6+b8gQwFSzxqiXIarPUXXU61/ceLTnvNj+y3XU609ERERE1L+xDDTsbv0hvSimnyfOZYqPsT6As4K6BwA67PgY9fZ47UFUIM9AdNVOrTvxamZ12h4HR73++9vbiiWGTBmv9pwX2385jnr9iYiIiIj6Nz6BhsqpdkI9bO6kEkrGxrvjDE70/YR1ENGNgYeu3syBiVsZXcGD8JGl0lhAYkh7Sc5NK8ARHsd91Ovf2wtstdtD2D7Hrj3nxfZftqNefyIiIiKifo1PoAEXMN1OqPcI35gvOkn14tn7G5cTY9eHqRpmsLNumYimuQ8cA2o4nroXb9VG+1YicGCoB4xRPzcNBWHW+egPZahoc1AAePV5GKbT+RsH6XP9w1a4/mNtBy+NziwsnfY5uvZ8Qj7T/vfmWvasL0Ww/ZercP2JiIiIiI6YMQo0AOebNzATZm7frd8Op838HKv1WPb+Qabry6s6K6as8+rQwgRusmbBU3Q0Mqa+i24k4NUht5O8abA8QOku3lHRMCc+iLomJ5LEqfH57io1PGyIp6JWXev8jfZLzZ4er9/1BybU2Huy6AcPS+tRPq+i9e/TnnmzM81qrylYe0y/ms8bPJejv/M5VqOb6FT7HFl7rl7sJGe1ktPNNs2dZNk82P6BI9T+iYiIiIjGxVgFGoALuOzewZx+ttPtHACUs5hp3MD1XjNaDE0VTd9GI3aXpOg2fLcJLVEuVKnB9RvQYzdViqLD9n08FHc6PVRQc33YuiJu1PZRqbnw7Qb0fe/c0vpf/7AVq/+YU85ixr6T0T5H1Z4v4LJ/A5f0aCaLsrD9l61Y/YmIiIiIjpYfvH79+s/phWfOdLpiE5GwZ97EvfobMb2lP7ppJomIiIiIiI6SMevRQERERERERERHGQMNRERERERERFQaBhqIiIiIiIiIqDTM0UBEREREREREpWGPBiIiIiIiIiIqTd+BBkmS0ouIiIiIiIiIiBL6DjQQERERERERER2EgQYiIiIiIiIiKg0DDURERERERERUGgYaiIiIiIiIiKg0DDQQERERERERUWkYaCAiIiIiIiKi0jDQQERERERERESlYaCBiIiIiIiIiErDQAMRERERERERlYaBBiIiIiIiIiIqDQMNRERERERERFQaBhqIiIiIiIiIqDQMNBARERERERFRaRhoICIiIiIiIqLSMNBARERERERERKVhoIGIiIiIiIiISsNAAxERERERERGVhoEGIiIiIiIiIioNAw1EREREREREVBoGGoiIiIiIiIioNAw0EBEREREREVFpGGggIiIiIiIiotIw0EBEREREREREpWGggYiIiIiIiIhKw0ADEREREREREZWm70BDq9VKLyIiIiIiIiIiSug70EBEREREREREdBAGGoiIiIiIiIioNAw0EBEREREREVFpGGg4DhwDquEgSC8HAARwDBWGk15OREREREREVL6SAg0v8ES6gmXpCpaNF+k3iwtewDVuohmtO3w9OQo3zcE6DPUOJOkOVPN/pd8tj2NA0ix4m376ndArrG16sDSJwQYiIiIiIiIaupICDUMQPEVTvo3n1hvspt87AgL7d7A88W+v7mEo9/iBCVWzAOiw3Roq6fcBAFU0XRs6AEtTYWZ3eyAiIiIiIiIqxdgGGl6uPGoHGGYad7DUetx+Xa6mCo+hivYT6Ir4t9JQUH6VA5jzdXhQ0PCbB6y/iqatA/BQnzd7DLEgIiIiIiIiGtyYBhpeYMsK/6lcxd/UTqXePwIqF9F0P0er9Tnc2n9Jvzs4ZwV1D1AaD1HL7sqQVG1CxBrqWBlK9woiIiIiIiKigoGGPecpnqg3Y3kTbmMzXShmL3iRKn8TTeMF9tIFh8mx2/kSHONfIUl3IEn/KvIWODZUqUc+heB/wjT+tf1+9DnVWIfT1TXgf8JIlAtf6npmL4LADOuhriNAvF53IKn2PsMcApi3xJCJxb6iDEJ1oQEFgHWrj14NgQlVkiCpxnCGfRAREREREdGxlDPQsIOXxhXc0x5h03uTfjPTnnkT9+TbqfJvsGvdxj3pLl7Glo7E6v8DzYpCHHuwbv0rVO13CNMpwKv/P7Eb/P8JQ/6/Ubf22u8Le/Cs/wFN/td9ggE5eL/DvPp/xeolltV7rT+wseoB0GcPGDKRUqlhUQfgrcLOWm+Ms1IX39mzcCuzEkRERERERETdcgUa9sx/wmpsSMP1dt6EG5hJlQVEQsdv6mGAQb/RLn/dVsMCLlbbs1TEZq6I95DwHuFefNYJ9elAPSE8bw9K4/9Ey/9vUADA24On/Df4rf8OHQCwh61XsQ8oP0HD/j/ht8QwiFbrc/iNE+Gbe1i14z0g/iua7XLR+vqxB8+DqFfrc/j2T9rLk+sXAnsVIs6QK8wAADg3rQDwsHpApCHq/QAlX68JIiIiIiIimmw5Ag07eLka9UpQMed+hOh2u5c9+9swoaOKueaFdvkT1c8wF92FW+sj7tXwEyymciboixdRwX/BdJi8seO/oulqqFX/S2JGh0rtr9tBBG+rOxBQiP7f27kcKudOiJv8Hut/teUBUDB9Lv3OwSraHBQAXiKakqFSg9tqoeUelGiSiIiIiIiIqKP/QEPwApvR+AH9Is6n3u4WD0y4WI33SpCudHpGtF3A5aweEomeE4+x1EeAY1/KCSTvz08ccMP+v+CYNlQ1nnfh/0ZX9QdyAo2F/9r5b+V/y+4hAgAI4O+XEIOIiIiIiIjoEPUfaIiZmv5RetEx9T9hSP8XtPrv4CWTNBARERERERFRhkKBhtzSvRISr8/66B1xOByj03NBafz3WJ6GPPkXylaB3Lu7AxEREREREdGh6j/QUDmFqfCfu1t/SLy1Z36TMb3lKZyIboi9b/Fy/9yDY+h/xYYo/ASLtf/aydMQ/L8Z33d0ooSOB6VZyPRqCx4AZf/xIkRERERERESF9B9owAVMtxM4fgPX2QEA7Dl3cS+aWSLl/Gw0u8QbPJ+/mww2BDt4ad7FE1OsZ/z8l1jPgf8Xflj3wFmHKv+P1HSXo1UJK2atOem3DuSsWQAUzGkHzCQRmFAlCZJqIP9fISIiIiIiokmVI9AAnF+4GvZqeIPn2udYlq7gnuYCONvu7ZBQ/Qxz+lnxb8/FqhxLCCl/jtW6G85KMZ6qs51pJuuySAQpa/8DHjqzQsQF5r9mJ4z0/gfkaLm6joE7d1QX0FAAWGs5gwAORJxhDgfFGZyVugimeBZumQPXmIiIiIiIiCZErkADKh/B8K9iJnaXPaVfxZz/FX7WI2nB+eZXuG5fxYwSBhxCU4qKS/YdfFw7lVg+VqoafPsniaCCov832P7/F4s9vu9oVKDNKQAsaEb/oYbAvAULgL5YS0zXmaW60BDfW9GxWDuoNBEREREREZHwg9evX/85vfDMmTPpRTR2ApiqjLqnoOG7ODAWEJhQ5To8pQHfPTjQQERERERERFREvh4NNEYqqD1sQIGHunxQHgUHhlyHBwWNhwwyEBERERER0fAw0HCUVWpwbV0MoVDNHrkfApiqBgsKdLuPng9EREREREREA2Cg4airNuHbOpQZuWdPBXlGBBma1fQ7REREREREROVijgYiIiIiIiIiKg17NBARERERERFRaRhoICIiIiIiIqLSMNBARERERERERKVhoIGIiIiIiIiISsNAAxERERERERGVhoEGKskLPFGvYFm6CTdIv3fMOQZUw8GkfW2ioyeAY6gwnPTy486BoUqQJBXmsE9U+54PJ3X7ExERTR4GGqgczjo2PQB4g+crL9LvHl+OAUmz4G366XeEDQPSNQnSNRXmO4gL/msSpGsS1GfZl+JE1Kfcx9crrG16sDRpsm52nTVYHgB4qK8M8YsfdD6c1O1PREQ0gRhooHJUL2JGAYCzuLRwIf3ueAue4ol6E8tGzgBJYELVLAA6bLeGSvr9hBnIJ9PL0gKYX4qbpOxXdDM1oHcmjC9VSA94pU/HRT/HFwBU0XRt6AAsbQRP9/sRmDBUFdIw77yrs9AVAFDQWKim3y1HX+fDMdz+RERENBQMNFBJLuCy+xhLra+gZl9hjq9X32PTe5NeeoAA5nwdHhQ0/Cb6v3Q/h+nT4l8z7x3Shnq7BWvbSy8lOgb6Ob6qaNq6eLo/b/bo4j9Cr7ZgecM+Hqtoui20Wi5qvTbLQPKcD8ds+xMREdFQMNBAVISzgroHKI2H+1+4vzcNJb3sQDrsr1todb1c1Pp6aks0IQodXwCqTYh73TqGOZJgYvR7Poxw+xMRER17kxVocAxIkgTVDIAgSo4VvlQDTuajlQCOaUCNl5VUGGY62ZUDI1q3Y0ANy5lO1DVWfFbN6isae1/URYWRXZkxswNXvYJlKfl60uvC0bmLZekKmuYOEETJI8OXehcv01+5q/zNvspnDYHYM8Vn23WLykpXsKy5Ypl1u+u7NM2d+GpCAcxboovwYl9X1QBOT+NcYoGC6fcSC/ILx6erzwLgnQMjPuziSwNOfJhFeyy7BOm+JZata13DMzLHtb8zU+tWYWxklIuGfnwpnlIGGwbU9udUqM/Sx0wO70yo1yRI1wxkN69obH738JJkPcL6Z9Ul2kYZQ0qCZyqkaxKMjcTS4X1f5Ny/bQGcZ6nvey3r+4rtpT4LgA0j3LYqzI3k/h6sPcRE++/LXvtvQAWOr+pCAwoA61a5T9UDJxwKsd/vRfhbJEkSJC08Hi0t9pms34sApipBUsP25sR/l1So6b8RlU+ts+cIja7fx9h36Pn7iGLnwyFufyIiIhoPkxVoiGytQJW1MDlWyLOgZXTjdAwZWt1CsmerB6uuQc66YttagapZEMU91NdMmPP19t/y6ivJC23HgCR33gcAeB4sTR7umN3DtPUETfl2mDwy5LlYnX+Kvdiitnb52PAGz8WqfBcv4+VGJbCx6gHQZw/oIgzgZA3u1y20vojGLFdQ+6Lk3glvV6AuabC2Y8u2LWj/0t2ec9swIC3VU+v2YN2XM2/II/YDFfJ9C177cx68NQ3zWTeu/ThZw+JFALCwlrjZD22swQKAi4uJ7ep01SOs/5oGOQwQlKH07xuXY/86D2Roa6nvi/D7Zu2vtytQ78fOV9+ZMP+ls7+9tdT5qmB7cOy6+BvbFm6VsU0igxxflRoWdQDeKuySqhSYKmStnhoKIX4v5rOCzAXZhgpZi/8uefDK+hvt38fYd/AsaHKPIFGe82HcELY/ERERjY+JDDR4liXGkto+Wq0WWn4DOnpd8CjQGzZ8vyXKtlpo+SKZFaxbXcmsPMuCpzTgt6IyddQ9HXarJbqKYhN++zMOjDB5VsMP6xKtXzzq6Vp/HoEZf6rW4zVQMOMUVPcxllridb1xNl0g067lYhdnccm+Iz7rX8UMAHjfdvdSiJWfaZe/gUsKALj4TWaPgz5UP2vXe8lWxTL9RmdZ+DJqp9KfRGCvQlxX57qsHhpvPWzPn/piiMVy2J63V2FHT73fb3aGYHyqi2UX7a7hGe6H8SeSDoz7YftcDtf9dQutZRv6aQDrt7p6DwAAtuuor3tQLtrww8/44d/0fmt33Rz3q/qBWIf1XXebdb4TT4X1D2L7ZMOAtu6JBHjRtvm6Bf9T8SQV23WsZAUt8hrS9430tX/bFOizNvzl2H5dDs9FGfvLW7fgnW7A/zoqU0d9WwzdsS9CnK/anynYHgBUtXCbn9axmGhjh+vctALAw2r3ib+AAPZq2N7ivxctH3ZDF+e4SLXZeV/8MAC6HfuMeLlZPQS8OuqWB0W34Yfl/HAd3mq8vVVQczvr8hv9DTKJfh/19u+jDfFRC7cyfpAGOR+Wu/2JiIhonExkoEFcCLqoVcOLuEoNsyLSgK1XyZLVpotmrYpK/HqvUg3LZ1HQeFhDBecwHV7XKY2FzCc9gXkLVpg8qxb/A5Uqmg8bUI7tBdhZXPK/gloNb+IrH2FaB4A32E1tf0HFnP8VLrfLX4C6KIIDu1t/SBYdgVdb4mZiOtlXu0QWtHa39/irxxNFKGgsu6i9H7ahkzXMXoRoz29TRXMInoXtc7mJ2slY+zxZRfMXYfv8Lrt96p/6cD+ptjPPV95fQOM0gO0tZO7ifrw/G94Mr6W2g4O1dQCnG1h4P7Y0Cj58Gts2ACrv1+CGgQDr1929AooYyvdt63//Vj9x0fywikr8af7Jalg+i4LGL8LzVZhEUZntcb4aoD10eh4clChwtCraHBQAXvrEX6oKqrUmmllBg4J024fbjLW36oIIBnhltDcdtu+i2f59rKK2GAYyMrbTIOfD0Wx/IiIiOgyTGWjQF7sSVoknK1mycjRIiIbVdlHmoCXW3XvcqrhA81CXM3oayKKr8SAXYJWa2/WErOvVPITLfv3jrpkpTkzv0xtCv4jz6U1YvSieEG7uZA+3GJoA/mZ62SFLDRcAgHPv9WrP/Xv1NmyfS+mAhwRpKWyfb7Pap47Z2I29EHVpH+RGs4qFWaV7+EQ4bEL/eXxKvTD4AB2zseBDWxS0KCUQMKzvG8q1f7NyNEjQ1tPlQqfnoCXW3bvHQfH2MCkq0ObEE/q6LEE1TDhBj8DLQHTMRkGAtqj3QgntTZ9F1+qr4fGy6XflgRi78yERERGNhckMNPQtgKlm5WgoAy/QqJdes06UcBPRtwD+6DuLHKjygXgCGu+JIHou9AgodCUJjHSe4B8fAcwvs3I0lGE828O4qdRc+LYORQE8qw5NlkWiRiOdqJGIiIjoeGOgYT/hlF2iK2myJ0A0rLa4CuQZZIznLa/HwfBzNByiYAe76WUjEe23464C+UcIu+2nAx6x1yfF22chJzXMnY7nJxA9F3p19+/dY+EVtrb3C0QcQRsrqG9DnK9S+0zkWxjEmLaHMVSpNuG6LbR8kZtBgQfP0iCHs0UcSYGP7Lj4pJwPiYiIKC8GGvYRhF0OlMZCd1fSEjARVnF79rfYBTA1dwEn0m+mBS/w7/XYjBUDivbbAKNajgTRPX+fcfeHooLaz/VOvTbWYEHB3AfpAzTqsXDALBU/kmPDLXp452BlrfQuTaUL3obnq9kFVA+acaGA8WwPA3q1BQ+AUiTBwEEqIjeD2wqT+2YmGz4aooSPypzWdbwMdD4c5vYnIiKiQ8VAQx8SmbwDB4a6T46GHNqJsOrz3fOsl2BsczTklcrDsOfcxTf1NwDOYkaLzQpx7gymAMD6Bm64Mfecp2JqzE6pbvHPOQfPYlEJH+FZa0e0N8h702IGgPVbMDd6t7pomIK3Ng/jWfnts7Awv4L32xUY31mZOQyACrSfijwG1n018T2DDRPq/YxZKuLbJZw9IdgwxdSSnVJjLzHTxTsHxpf75GjIYaD28M6Eek2C9GWvhKaHw1mzACiYSybW6eYYUCUJkqTuMxOQA1M1YDpBctsEPsTcnjOQs/7MubDdWbdgOj1XPjqpPAyBY2C+LhI+Zm2nQc6HfW9/IiIiOnIYaNhHFAiAV4fcTtKowfIARdzDDKZSw0ORKhxWXev8jfZrv4vaMRA8RVO6guXwdS/sNbCpdZY1i04/Gec9wr3439Fc0Zuh8Q/JpJKVC5hRAOANnstR2Udiakw9nMIyS/xz2uftv9Oz/lGGdys9+0FZes06ofacPjCXaPgBPNTvy4m/oT6LNbiTNTycDdvnmgZ5WPXJLUwKuW3BWk8FC2IqHz4UMz+kvqd8XyQuVGZ9NON5HeLbJUx4KMoq0C8OPFZq6KJAALbrnX21pMHaBpQy8lEM0B4cW2xzbFu4FW9jh8qBuM9NJ/BNC2DeskT94aG+0vuo3/Is1DU5eS6X67CinnHpDwBARcOc+KFBXZMTvwHqID8AgRkGR8RLFuMAYWkHrD/+eydJkDXx3ZXGw64kysAg58N+tz8REREdRQw07KdSg+s3RLfXkKLosH0fD8WV4cBE8rAG9FIiF5NhSlEx59+BUYv1ZgAAnILq3sElPTaDhRJOjTkbL5cmPjennxU9Gw4UZZe3oB3JHBcV1L7wYV9UxI3pPiofuvA/bUA/fVDJ0WrfVPdKAgl0vuesnvyep3U0PvXhds2uIMo3LsZKn9ZhL7tofhAvN6ZO1uAuN6DHggrKaR32so+HYe+OQRVtD1WtIfbB6d6zWoyamF4Y0Bfjs5VkqUBbjNqQgsZsZrhABMAyzuWKoqNh+3Az79Ih2p3rw9YPPh4PQ/Sbt1/9i5wP+9/+REREdBT94PXr139OLzxz5kx6EdHoOXexrLmAfgNLzQvpdw+ZmJGk7ilo+G72kz4ang0D0n0LymxWwIDoAIEJVa7DUxrwXd7oAmJ4iKRZgG4XGFKX83zI7U9ERHTssUcDUSEV1B42oMBDXR6vcefHW4DgmRHmWBifp+N0lDgwZDEkpvGQN7nlyHM+5PYnIiKaBAw0EBVVqcG1ddFl+ChPXXcUbBhhHgAZ8polblKWm9lj3ol6CmCqGiwo0O0+nrxT//o6H3L7ExERTQoGGogGUW3Ct3UoM31Mk0ilEHkH3IyZJogOJs+Im9zcowPoYH2cD7n9iYiIJgNzNBARERERERFRadijgYiIiIiIiIhKw0ADEREREREREZWGgQYiIiIiIiIiKg0DDURERERERERUGgYaiIiIiIiIiKg0DDQQERERERERUWk4veU+9sybuFd/A+AsLvlfQe01MXiW4CmezD/CpgdMNe7AqJ1KlwDwAk+k29hML1au4rr7EU6klxMRERERERGNOfZoGJI9+1tseuLfu/UneJkuMG6Cp2hKV7Dcx+uJk/4wERERERERkcBAw5Cc0P4aM4r491TjMs6nCwAALuBy6zGWWo+x1LqBmfTbREREREREREcMh07sY6ChE7nFhlGMw9AJ5y6WNRcAMGM/xuVqugARERERERFRtwnp0bADVw27/hsv0m+27Zk3w+EBdzOGOuzgpXGzM7xAvQs3SJd5gScZQw2W1afYSxcdwF7wAk/UqK5XsCzdRNN4Uerf6EtsuMUTJ8xLEW1n6QqaRvJ7d7bvzdS2i223jP1T6PsGJlRJgqQa4EgPIiIiIiKi0ZmQQMMpnMgzLkE5k+pN8Aab859j1XqD3WiR5+K5nL5hHr498ybuybex6b2JLX2DXes27mUGSEbEf4qmLJJfRnatR7iXETjIo+j3dVbq8ADAs3DLHPFOIiIiIiIimmATEmiI2dzp+SR8byu8mZ051TVsYTecPWKp9RjXbTVc+gab9k6s1JBzLgRP8U09rKN+A9fDv9Wpj4vVAW/si9qsP8KuomLOf4yl1h1cCvNTwFrvGQw40ADft7rQgAIAio7F2lDHvBAREREREVHMxAQaTkyfTS5od/vv7pUwNf2j5AKIG91oisoT585gKly8u/WHRLFh2rO/DXtUqJhrXmgHQ05UP8OcHv5nkBv7gaiYcz/D+QoAnML5uWh7f4+9gh0KBvq+lRrcVgsttwmmlyAiIiIiIhqdyQk0yGGCS+970aPh1ffhTWzUK2EHe5uiyJQsAgodZ3Fp4ULnv5VT7UDD6Ozg5Wo0fMDFaioPxKqVKj5q+sXEzBonal+FPTuKJtEc8+9LREREREREmSYm0IB2LwTxhP3lmphRAQB2V+OJBc9i6lz7P0RERERERESUw+QEGhK9EF5gyxLTSF5SAHjf4mXwB+zGEhmONeVqO19B9+uzRM+CY2HSvi8REREREdERNjmBBvwIUwrEjAX2DnYBTM1dCHMJvMHmyno4lOIMThTq6j9ssZkzvG/xsmDeg3G0Z36DcNRKzPH9vkRERERERMfZBAUaOjbrj7CLs5jRTuGE9teYArBruSLQ0DW15fg4P9uZ7eL5/N3kzXewg5fmXTwx47NgjJd2nozYbB17zl3ci2aWSBno+wYmVEmCpBpw0u8RERERERHR0ExQoCH2hBzo9FyoXMBMNBUjsqe27NeeeTOWsPB25ym99wj3ouXq004+COduvvLVzzCnh7M5eC5W5ViCRPlzrNbDYMm4ql5sT/m5W/8cy9IV3NNckRcjvg8iA3xfZ6UODwA8C7dMdocgIiIiIiIalQkKNKSmuGzPkpAMQGRObTlGzje/wnX7KmaU5HSdU4qKS/YdfBxOwTmeLuCyfyMR2JnSr2LO/4d2ACKt6PetLjSgAICiY7E2lmNhiIiIiIiIjqUfvH79+s/phWfORF3ciYiIiIiIiIj6N1E9GoiIiIiIiIhouBhoICIiIiIiIqLSMNBARERERERERKVhoIGIiIiIiIiISsNAAxERERERERGVhoEGIiIiIiIiIioNAw1EREREREREVBoGGoiIiIiIiIioNAw0EBEREREREVFpGGggIiIiIiIiotIw0EBEREREREREpWGg4SgKXsA1bqKpXsETJ/0mERERERER0eFhoOEI2rO/wXPrDXa99DtEREREREREh4uBBiIiIiIiIiIqzQ9ev3795/TCM2fOpBfRYXPuYllz00u7TDXuwKidEv8JnqIpP8IugBn7MS6fe4on84+wGfaEmNKv4uPmRzgBYM+8iXv1N0BUthpbKZLrgn4DS80LqfdNqHIdnqLDdptIf5yIiIiIiIgmA3s0TApfBAqiIAMA7FqPcM94AQA4of01psLlm2tiWdye/a0IMuAsLi2kggwAnJU6PADwLNwyg/TbRERERERENCEYaDgqqp9hqfUYS63HuN442148Y4tl0avdmyFls/4Iu4qKOf8xllp3cEkJ37DW8RIAKhcwk17WtoOXq6K3A5S/xvlK4k0AQHWhAQUAFB2LtYwCRERERERENBEYaJgYKubcz8IgwSmcn4uCFd9jLxDL1EU1XOZiKz6bRfCiM9xi7gJOxN5qq9TgtlpocdgEERERERHRRGOgYVLoF3E+9t8Tta/CXhBfQY06IFQvYib8Z3z4RGfYhIqf9egxQURERERERAQGGijpAqb18J/t4RMv8O9hksh0sIKIiIiIiIgojYEGSji/cDVMChkOn3DWsQn0TAJJREREREREFMdAAyXFkkJu3noKdy2cUrNHEkgiIiIiIiKiOAYajqAT8pn2vzfXnmIv8e6gYkkhvUd4bol/zix+lJ0EMhKYUCUJkmognkeSiIiIiIiIJgsDDUdRLGkjrEe4J13BcvhqmjvJskXE1w8AUDF9wFQSzkodHgB4Fm6ZQfptIiIiIiIimhAMNBxJF3DZv4FLejRFZdliSSEBTDUuH5gEsrrQgAIAio7FGsdYEBERERERTaofvH79+s/phWfOdLrm02R6aVzBqgUAKuZanx0YaCAiIiIiIiICezRQtx28NG+GQYb+ejMQERERERERRdijgQTnLpa1cIaJ0JR+A0aTU1oSERERERFR/9ijgbopKi7ZdxhkICIiIiIiotzYo4GIiIiIiIiISsMeDURERERERERUGgYaiIiIiIiIiKg0DDQQERERERERUWkYaCAiIiIiIiKi0jDQQERERERERESlYaCBaCy9wBP1Cpalm3CD9HuHzDGgGg72r9YY13/Y+to+RFS+AI6hwnDSy487B4YqQZJUmMM+8ex7fsu7/fOWJyKio4SBBqJx5Kxj0wOAN3i+8iL97uFxDEiaBW/TT7+TNK71H7aDts+GAemaBOmaCvMdxA3CNQnSNQnqs+xLd6KJlft4eYW1TQ+WJk3WzauzBssDAA/1lSF+8YPOb7m3f97yRER0lDDQQDSOqhcxowDAWVxauJB+dzDBUzxRb2LZyBkACEyomgVAh+3WUEm/HzfM+g/bKLYPZiCfTC9LC2B+KW6qsl/RzdeA3pkwvlQhPeCVPo2rfo4XAKii6drQAVjaCJ7u9yMwYagqpGHeSVdnoSsAoKCxUE2/W46+zm95t3/e8kREdJQw0EA0li7gsvsYS62voGZf0RX36ntsem/SSw8QwJyvw4OCht/EwZeyQ6z/sI1k+0TOYfq0+NfMe4e0od5uwdr20kuJxlA/x0sVTVsXT/fnzR5d/Efo1RYsb9jHVxVNt4VWy0Wt12YZSJ7zW97tn7c8EREdFQw0ENHBnBXUPUBpPBzShewR1+/2eW8aSnrZgXTYX7fQ6nq5qPX1lJfoiCp0vACoNiHuXesY5kiCidHv+S2Sd/vnLU9EREcCAw00YgEc04CqSpCk6KXCMHsllwKCrvLJz3Z1twzMMDFW+FJVGE660DjagatewbKUfD3pdeHl3MWydAVNcwcIouSL4Uu9i5fxrxyWXZauYFlzxTLrdtffapo7sQ9FApi3RJfZxX2vModY/8zyN/sqnzUEYs8Un23XbSTbJ+b0NM4lFiiYfi+xIL9wPLv6LADeOTDiwy6+NODEh1m0x75LkO5bYtm61jU8I3Mc/DsztW4VxkZGuWjox5fiKWWwYUBtf06F+qz3MX+gdybUaxKkawaym1c0lr97eEmyHmH9s+oSbaOMISXBMxXSNQnGRmLp8L5vWwDnWar+13rUPxR0lU9+Nr19+t+/MdH++LLX/hhQgeOlutCAAsC6Ve5T8sAJh0Ls9/vlGJ33tfD4srSu3y818eMVwFQlSGrYfpz4754KNf03ovKpdfYcoRHWSTUDIHCS30E10PsnssD5rcD2z1ueiIjGHwMNNFKOIUOrW0j2JPVg1TXIGVdIjiFB7iq/D8eAJNfDxFghz4OlycMdI3uYtp6gKd8Oky+GPBer80+xF1tUWGBj1QOgzx7QZbagvPVvl48Nb/BcrMp38TJeblTybJ+TNbhft9D6IhrjXEHti5J7J7xdgbqkwdqOLdu2oP1LCRfwGwakpXpq3R6s+3LmDXnEfqBCvm/Ba3/Og7emYT4rkNGPkzUsXgQAC2uJm/3QxhosALi4mNiuTlc9wvqvaZDDAEEZSv++IeeBDG0tVX+E9c/Y/s4DCXJX+X0U3L+OXYcH0c5uDfgdEwY5Xio1LOoAvFXYJVUpMFXIWj01FEL8fs13RbyLsw0Vshb/3fPglfU3tlagylryO3gWNLlHkCjP+S0u7/bPW56IiMYeAw00Ygr0hg3fb6HVCl++SAYF61ayd0Jg4pYlPtOIlfdtPVxVA35iTKoDI0xW1fD95PrFo5Lu3g85BGb8KVaP10DBjFNQ3cdYaonX9cbZdIFMu5aLXZzFJfuO+Kx/FTMA4H3becpf/ay93iVbFcv0G51l4cuonYqtWQjsVYjrzIMuM4dY/4zyM+3yN3BJAQAXv8nscdCHkWyf0fDWLTGW+lNfDLFYbojja3sVdvT0+v1mZwjGp+HxdNHuGp7hfhh/gunAuB8eX8vhur9uobVsQz8NYP1W99NxANiuo77uQbloww8/44d/0/utXfjmvvqBWIf1Xfcx53wnniLrH8T2yYYBbd0T55No23zdgv+peJKK7TpWsoIWeQ3p+woK9Fkb/nJsPy2H58/09n9n4ta6+EwjVj6qC0434Cdu2AvuXwBVLdyGp3UsJtrM4To3rQDwsFrKnWsAezVsP/Hfr5YPu6GLc1ak2uy8H/1e6XbsM+LlZvUQ8OqoWx4U3Yaf+s3zVuPtp4KaG/tdbPQ3yMSzxPlBt8PfSN+G+KiFWxk/kIOc3/Ju/7zliYhovDHQQCNVbbpo1qqoxK+vKlXMhtdiCa+24KF7XGiluiAujLwtvIoVD8xbsMJkVbX4H6hU0XzYgHJsL2DO4pL/FdRqeBNc+QjTOgC8wW58AxX0aktcXE8n+y6XKG/9Vcz5X+Fyu/wFqIsiOLC79Ydk0REY/vaxoHV1eZf2GTagoLHsovZ+eAycrGH2IgB42HqbKppD8Cw8vpabqJ2MHV8nq2j+Ijy+vss+vvRPfbifVNuZ6ivvL6BxGsB28hjO5f3Z8AZ7LbUdHKytixvphfdjS6Pgw6exbQOg8n4Nbnjzbf26nF4NQ/m+AKqfuGh+WEUl/jT/ZDXcvylvw/Pn7MPE0/9edRlk/3Z6HhyUKHC0KtocxE/FIFv9IBVUa000s4IGBem2D7cZaz89fvOK0WH7LprVcO2VKmqLYSAjYzsNcn7Lu/3zliciovHGQAONWFaOBgnRMNaEcyIRmFdfSYwfDcLEVFCS43bFBZGHupzR00AWXXsHuYCp1NyuJ1Jdr+YhXGbrH3fN7HBiur/eBAcL4G+ml5Usb/31izifvqavXhRPFDd3sodbDM0Itk9eqeECAHDuvf6edu7n1dvw+FpKBzwkSEvh8fU26/jSMRu7sReiLvCD3JhWsTCrdA+fCIdN6D+PT8EXBh+gYzYWfGiLghYDBgKEYX1fiPNnRs4FbT1drpNI0VtbSeTnCDZWUN/uzntQfP9Oigq0OfHEvS5LUA0TTtAj8DIQHbNREKAt6r0waPuBGAKRXn01bP+bflceiLE7vxER0ZHBQAONUABTzcrR0EM0ZhMWtFjwQA6jEvpi/EaCF0R0XPWadaKEm46+BfBH31nkQJUPxBPQeE8E0XOhR0ChK6lgpDNt4vgKYH6ZlaOhh1geCy0WPJDD5J/JQMx47t9xU6m58G0digJ4Vh2aLItEjUY6USMREREx0ECjE/VEgA47Mca1Jaa26uJgzQKgiAu7NkVHw/aR7DxQgTyDjPGz5fU4GH6OhnEUbdcxF+xgN71sJI7I9hlYBfKP0DXev+v1SfHjq5CTGuZOx/NPiJ4LyuxCdhCmZ4+FV9jKeMo/VqKeCNBhp/aBnTV0oj2ERIcSD6Kc1tH41EczEYgZ0/07hirVJly3hZYvcjMo8OBZGuRwtogjKfCRHaeflPMbERENAwMNNDJB2OVAaSx0d93M0M658DC8sIuCBW4TtYwVMJHUcETbdYBRJ0O3Z3+LXQBTcxdwIv1mWvAC/16PzVgxoKOwfcoghl/sM07/UFRQ+7neqdfGGiwomPsgfX6IeiwcMEvFj+TYU/4e3jlYWeunS1a5grfh+XN2AdWDZlxALOfCL5pwv4gFC75oJnJURMZz/w4oyvNTJMHAQSoiN4PbCpMNH+HZEqKEj8qc1tX+Bzq/5d3+ecsTEdFYY6CBRi6ROTtwYKg9cjQAYeDAQRAEBz4taieSqs93z2tegrHN0ZDXuTOYAgDrG7jOwbM0VMJHWtbamPTWSOVh2HPu4pv6GwBnMaPFZoWIf8+wMew5T8XUmJ1S3Y769skrHMuP9VswN3ofNdEwBW9tHsaz8o+vwsL8Ct5vV2B8Z2XmqAAq0H4qukVZ99XE9ww2TKjRcIL4LBXx7RLmOAg2TDF1aKfUyCVmrnjnwPiyR44GIAwcOAje9XH+HGT/vjOhXpMgfdkrQenhcESXOMxp6dvnFMeAKkmQJHWfmYkcmKoB00lty8CHmNtzBnLWnwlzDcG6BTOebOiwpPIwBI6BeZH0KHM7DXJ+63v7h/KWJyKi8cZAA41MFAiAV4fcTtKowfKQHBoRlQ8vcLy6BlmWO58JXyIZV/wDNTwUqblh1bWu8vtfRI6B4Cma0hUsh6974VP3Ta2zrFl0+sa4ygXMKADwBs+1z9vr7rn+KOO5lc7unzKq+nuPcC/+dzRX9GZo/EMyqWT8e8pR2Udiakw9nMIyy7C2T2G9Zp1Qe043mEs0/AAe6vflxN9Qn8UOmJM1PJwNj681DfKw6pNbmBRy24K1ngoWxFQ+fChmW0h9T/m+SHSozKaGE8S3S5jjQJRVoF/MHOs1VFEgANv1zrZf0mBtIzk0Iir/Xnj+XNMgL8ld+0t9YCaSRA6yfx1bbENsW7gVbzOHKhp6N4f971sDmLcsUX94qK/0Poq3PAt1LfVbJNdhRT310h8AgIqGOfHDh7omJ3/DBvlBCswwOCJeshiXCEs7YP3x398w55GH7tmd2gqf3/rd/pG85YmIaNwx0ECjU6nB9Ruim2lIUXTYvo+H4kosKbrAAQBF6QpGiGRcySdoIllXA3q6MMWcgurewZx+Vjy5P1CUbd2CNoY5KKYUFXP+HRi1WG8GoP09L+mxGSyUcGrM2Xi5tOO1fQ5WQe0LH/ZFRdzI7qPyoQv/0wb00weVHK32TXivJJBA53vO6snvGeYscD9M392I8o2LsdKnddjLLpofxMuNyMka3OUG9FhQQTmtw1728TDsrZEQTWMJAKeVrmCEt16HtpQ6fxbcv1WtIbbpaR2LXdvxcIihd+mkwVkq0BajNqGgMZsZLhABrYzfFiXMGeRm3qVDtCPXh60ffHwdhug3eL/6Fzm/9b/9hbzliYho/P3g9evXf04vPHPmTHoR0YiJGSrqHqDbrVTix3DIhayJMci+m/0khkoU7Y9D3N7OXSxrLqDfwFLzQvrdQzYG22eSbRiQ7ltQZrMCBpNIzFBR3wb0T1upxI/hkIul8Py57GYMNTniAhOqXIenNOC7vHEFxPAQSbMA3S4wxC/n+S3v9s9bnoiIjgT2aKAx9Qpb7Xxr6fHFAYJXYfK2XuNiqWQV1B42oMBDPdWLhMDtc2gCBM+MMMfC+DxNP3zhLBpA9vnzbez8edyCDHBgyGKIS+Mhb1rLkef8lnf75y1PRERHBQMNNKaqmA2HQVvpMbGSDDnMHtlzXCyVr1KDa+uiC+1RnsptWLh9RmfDCPMGyJDXLHGTstzkuaCtitlwykvrfjo/gww5TH7ZcxrQIyuAqYqeGrrdx5N36l9f57e82z9veSIiOkoYaKCxVW2G85R35VtQoOgN2H5rn3GlNBTVJnxbhzLTxzSAk4jbZ+REnoJj2P1/QNVPwnwUXfkWFCgXG7CXW8dymIk8I25ac48OoIP1cX7Lu/3zlicioqODORqIiIiIiIiIqDTs0UBEREREREREpWGggYiIiIiIiIhKw0ADEREREREREZWGgQYiIiIiIiIiKg0DDURERERERERUGgYaiIiIiIiIiKg0nN6SDkfwFE/mH2HTA6Yad2DUTqVLdAtewF35BpvWG+zGFs/Yj3GZc3ATERERERGNBQYa6FDsmTdxr/4m/J+KudZnOJ8qkxA8RVN+lAgwRBhoGK4//YeJ3/3/6tj5fbjgxwpO/R8P8Zd/VUmVpEkRbxM//MTHz/4uqy0E8P9exu+idpP24wb+9p9r+IvUYrY3IiIioqOPQyfoUJzQ/hozivj3VOPy/kEGAC9XOkGGmcYdLLUet18MMgzPn36l4t/+MXbTBwC/97DzjzJ+86sgtpCOvwBvf2XgNx9K3W2iJGxvRERERMcDAw10OCof4bIrAgUHD5t4gS0r/KdyFX9zYPlJF8BUVZiD3pdtm/jtAw8AcOqXPn7+rIWfP2vhb3+p44cA/vhgHv52+kN0qAIHhmrAGXTfZ/jTr+bx2wcW/gjgh5ds/PSTMFJ4kB838Ldh20m80r0Z2N6IiIiIjg0GGmiEXuCJdAXL6Zf6FHvpoiMTwDENqKoESYpeKgzTQa97taCrfPKzXTf4gQkjXl5VYQzjThDib6mSjLrnYdUe7G/8yVsVN5Wf+Ilu63/xV83wJtPD7x45ic8UsefcRVONt4mbaBovuttE8BTNsMwTJ8zzEftc0yijHR3t9hC8WsOmZ0GTM/7ugP7i7xZx6sc6fmq18LOFKn6YLjCggdpbYEKVJEiqgR4liIiIiGiEGGigieYYMrS6BU88SA15sOoaZKP7lsUxJMhd5ffhGJDkOqx4ec+DpcmQMtY/iMAxoMp1eFCg2z7c2iBj2gPs/MYDoOCUklrPtoPf/Sb8Qq99/Cn5bg47cNUruKe52E1szzfYtW7jnnQXL+OL43yRs2Mz9rld6xHuGS/ipXI76u2hUm3C9RtQ4KEulxfAEKr4y39u4r3T6eVlGKy9OSt1eADgWbhVdoSFiIiIiHJjoIFG6AIut3Mr3MBM+u2EeO+H29iMFnuPcK/U3hAK9IYN32+h1Qpfvg0dAKxbyafCgYlblvhMI1bet/VwVQ34LRed+3sHhmYB0NHw/eT6lYz1DyAwVciaBU/RYfsumtVBggwA8Ap//D2AH8/hVOzG8k+/MvAbXeuMof/9Fv7YeTuXPfOf8Dy8f5zSb+B62Dau22pYwsVqj8DBZv0RdhUVc/5jLLXu4FLUi99a7x2c6MsxaA+VGlzfhq6IAIZaykqHbbD2Vl1oQAEARcfiQAE2IiIiIioDAw000apNF81aFZX4vUmlitnwXjHh1RY8AErjYezmEahUF9BQAHhbeBUrHpi3YEFBw2+iFv8DlSqaD8VT50GHNwABHEOFXPfEja3bxMAxhizbDv7z7yX82wMLf4SCU7+08ZMfpwvlsYOXq+GsI8pVfNy8gBPhOyeqn2Eu2v49Awcq5tzPcL4CAKdwfu5suPx77A2wSY9+ewhVqmi6PhoK4NVlSKrZc+jH0P2+jn/7UMKvw9dv/t6A/x8H1CZve6vU4LZaaLlNMDcsERER0eFjoIHGVI/eD8rV9pPvpdZjLLkftW9Qi8kaky9Bi5JPxp2bhgLAq68kku0FzgrqHgBlGudixV9teQA81OX0uH0Jkiy6entb8VvRvAKYqgzN8qDoNny3hmHEGP4Yf6r84wZ+arn4y7+Kf9MCghedYQ8zp7r24YnpKHDgYitrRIF+MTFTyYnaV2Gb+ArqQBvhKLeHtApqrg9bVwCvDnlISSLz+uPvLfzuH2X8eiVrxw6pvRERERHRSDHQQBMsvFHvd4x9pYZF0YceWuxmUQ7vQvXF+I1+AL893uMI+309nGlAETMB/HOt9DH6U9M/Si86JMexPQwUdRlQBfI/p2eb8PG3n4hZJPBcw3/+R+ojI2hvRERERDR8DDTQ5IqePEOHHR+T32ohGmaf5GDNEuPAlfjMfoqOhu2jmeizXYE8g67x+12v5Idy6jyx9iwNcqnd48/hh1FX9R/r4VPl2E3rth0+cZ4eePaB3a0/pBfFnMXUqB5mH/n2kBbAVCVo1pCH1eRSwV/8XRM/uST+98fvoxY7uvZGRERERMPHQANNrCB8xKw0Fvq6AWuPsX/YhOvGbg7dJmoZKzg3LabkK23cfaYKqk0XvhiMD1kqq3t8BT/838W/Tv0f3TMNtKci/JmGv0i+1Z/KKUxF/97cSSX0jOVvwBmc6N60Q3E82kMocGCoMkTqDh+tIQ2rGdQPz0S1GnJ7IyIiIqKRYqCBJp63and6AgQODLXHmHwgvFF0EATBgb0HKtpcOIZ/HobpHFh+EJWaC9/WocCCJqsoYaZEvHe1gR8C2PlHFf8ZS973p/8w8G8PPGRORdi3C5iOegl4j/CN+SIMNuzgZXw2isblRC6GUTjy7SEwocoaLK+MaU5Lth3g7YqK3z4HAB2n/qrz1kDtLTChShIk1UAJTZ+IiIiIBvSD169f/zm98MyZM+lFRAPbM2/iXj16Ut2DchXXuxI8vsCTaIrLzPcLCkyoYRK+NEUBPE9Bw49NT+gYkHrfcULRG1hcqCWehgdmOCNEptT6yxD7Tkpj8JvMP/1KDW/yup36ZQt/GbtRzO8Fnqi3O0kh09L7OniKpvwIuwCg38BS80Ki+MCOQXsIHAPzmgWvhHV12TbxG72eOb1k2yUbP1+Ihn84+M8PNeykiggKfmK5kNM9Fwq2N8foBIPKaPdERERENBj2aKDJVanB9RvQY+PrFUWH7ft4OBcfdB+Kpi2EuPNMjMsH4Fl1aHLyiaroadCAni48LJUa3JaPhqJgThv8Zusv/s7F3/5S74yfhxhD/5Nf+j1v+vp3AZfdO5jTz3aGUQCAchYzjRvlBZT6dQzaQ+XcNGYUHXbZQYay/FjBqU9s/O2z7iADBmhv1YUGFABQdCyO5RcnIiIimizs0UDUFzEjQd0DdLuVSvQXdrGXNTFmf1xv8qhEbA9ERERERL2wRwNRX15hq92jOz0eP0Dwag2i5/YMZN5UTgC2ByIiIiKiXtijgahP8XHgvXB8+ORgeyAiIiIiysYeDUR9qjZ92A0dStf4egWK3oDtt3hTOUHYHoiIiIiIsrFHAxERERERERGVhj0aiIiIiIiIiKg0DDQQERERERERUWkYaCAiIiIiIiKi0jDQQERERERERESlYaCBiIiIiIiIiErDQAPRWHqBJ+oVLEs34Qbp9w6ZY0A1HIxbtYioFwfGlxKkayrMd+n3iIiOogCOocJw0suJaFww0EA0jpx1bHoA8AbPV16k3z08jgFJs+Bt+ul3hA0D0rX4DY0D45oE6ZoE9dmgoYkA5pdiXfGXsZEuR3QcDdD+N9ZgbQOAh7qd/6rcecAgRfvc9iD/9iPaD4+vUO7rh1dY2/RgaRKDDURjioEGonFUvYgZBQDO4tLChfS7gwme4ol6E8tGzgBGYELVLAA6bLeGSvr9hBnIJ9PLUtoXFanXlyqMZ+wxMbbemTC+VHnDdZS8Pwv9NAAoaGjV9Ls0Tnh87SvYMMPeObHfiw3+WsTFt1H2DTp6Bi4729XM/A0ezfbv4/oBAFBF07WhA7A0FWbZ1SCigTHQQDSWLuCy+xhLra+g7n9Hn9+r77HpvUkvPUAAc74ODwoafhP936qcw/Rp8a+Z9/r8ItserDUN8pcGkpfaFdS+aKH1tXj5s0riXRqRt1uwtr30Uhq6Qdp/Fc0vWmh97aLW1wU8HRoeXz0Fz1TI9+th75zQtgfrvrzPDfWkCOA8M6Bek7q3UUlGv/37uX6oomnrorfWfHZwhIgODwMNRHQwZwV1D1AaD1Hr9XsPAO9NI8/tDwAos3775qn1dQv+p7pYx7YFjU/1iIjonYn5NRGA0T/t/GZEvxfe2vxEDz0Ins1DW7PgAVAu2rD7DUSebsCP/f62X1+kei2OYvsXuH4AAFSbELGGOlZ4yUA0VhhoIOqXcxfL0hU0zR0geCGGH0hXxEu9i5ddofQduOoVLKtPsQdgz7mLphqWl26iab7AXlb5aJ3h60mvH86u+sQ+l65PWHZZuoJlzRXLrNtdf6tp7sQ+FAlg3hJDJhb3jTLEnJ7GucQCBdPvJRb0VHm/CfdTXfznD/7gTyje5enqGT4VSnQp3X8oh+hKqvZdPl99Cuh3/eHQFfVZALyLkgVGnzHgxC8a48Nc7lti2boW+87ilflUq9/6RF15wy67wUZ8P6hQ99umfcu/f/vyzoR6TYJ0Ld0LJxKNNU6Pwx5SfYCeXaMPzOnwzkm1ZwnaerpQUfm/b9BVPvnZrpubvtvbAN45MB/EtlH6eInrpz45j6/gmfjb++7LqE2mg7X91Ceu3/J5zicFBN+tipvoWR/N9zu/Q5X3m3g4qxTOP5KUo30W/b5DOr4qHy5CP63DXm7B/aSa+v0d3Gi2f6jA9UN1oQEFgHWLvRqIxgkDDUR5bT1BU76dHH7guViV7+JlvFzMS+Mm7mkudts9Yt9gt34b32Te2OfUrk9smedidV4EOAYW2Fj1AOizBw+ZOFmDm3gaEnX3ztllO3qysb2FV+n38tgwIC1ld/XsugAH4DyQxVOhRLfTcChHRvlOV9LExoe1pmE+66Y7Z31yK7L+tytQl7TUZyxo/1LCBVuR+gCwH6iQ78f3gwev1zbNIe/+7dvJGhYvAoCFtaybv401WABwcTFxHAytPgUFGwakJW1oXffzfl/ngQS5q/w+Cra3PBSsQV3SUF+PbaNtC9pSRpBpSPWpvDeTXtTt7Za4MXwvdsuWtz55y2NY55MA9m89AArmPkgFu985WPltuC8GDEznbZ9Avu873OOriuYXTVTz/M72bTTbf6Drh0oNizoAbxX2QJUgojIx0ECU067lYhdnMWPfwVLrMZb8G7ikAICL32QFDrxHeG69wZR+A9dbj7HUeozrtgoA2F2N92o4BdUV7y+1HuN642xsJb1F9bnUrs9VzACA922nV0P1s/Z6l8K/Df1GZ1n4MmqnYmsWAls8ydBnDwwzlCe8SO5+spGHA+O+6InRWI4Nz1i2RWK89VvdT0OhQJ+14S/HupAui2RT3eU7F1+NePmvfdizutgHCUXqk0ex9Xvrlsi9EXWHXW6I77u9Cjsq/36zs76ot8lFO/adxcv9MH4RWqw+2K6jvu5BuWi3u/T64d/0fmsPdiGba//mU/1A1NH6rvuGxPlOPKXWP0gfQ8OrT+6cDu9MzN+3RJ1iXaNbX/toXEwXLirH931n4ta6+Ez8+IragujyHb8BKdjecoqOl/Y2WrbROA0AFm4lAmE56lPo+AI23x58NHTGtueoT6HyQl/nk9xeYWsbwOk5aLEbzuCZkbzJHzQwnad9hvr+viM5voZlVNt/MOemRc+KVUYaiMYGAw1EuamY87/C5Wp4U165AHUxDBxs/SFZNDRj34HRvIAT4f9PVC+L4IT3fQm9Ds7ikv8V1HZ9PsK0DtFrooRf/Vdb4mZ6uvgdfw6B6DIfdh/Wf37Q7Ba9Bc9uwYKCxnITtZOxtZysovmLBhR4WP0ueUFS/cRF88MqKvGnJyermM11IVhB9cMmmqmbgiL1yaP4+hU0ll3Uou6wJ2vh9/Ww9TZVNIfi9RFjgN1Pqu19X3l/QdzMDXghW87+7eH92fCGZC31ZNvB2joA6Jh9P/HGcOuTU6dr9MNE12igAjn2v0Hk+r7RE/nZh4mnmb3awiDtLR8d9rLb2UYnq6j9PAyEve3UaKj1CXt8df5ectgRAARvN8V5O+xynrc+ect3DOd8khAOVZDXoqBPFOwZTK722dbf9x3F8VXIdh1yfHjOlwbMrKExcUPa/oOqaHPiuNga5FeCiMrEQANRXvpFnE/eQ4rpKAFgcycjcKBiOgoCtEW9Fz7D+dQ7uekfd81McWK6v94QBwvgb6aXlctbk2PjVWXRZR4ioVUzdWOWx6u3HgAP9aX4eNvwtVSHl7oxELLG6PYaQ1uB9tNwbOqSBPWBCedd7wu0YvXpX+H1p7rzA8C59w54+t2HwvWBjtnEhThiT+fzzHiSJc/+zauKhVmle/hEOGxCmV3IqPsw65OP2F8ZXaNLleP7RjfTayuJ8e7Bxgrq2929nYq3t5wuznZ3T4+CTLGu40Otz0k52WPqnY3V7eRTdPH3O9ME5q1P3vJtQzqfRF7Fn6KfboRBn7Ki4DnaZ6TP7zua42tw3raF+j5DY4a7/YnouGGggYjGinJah70snmgXF8DP7lyyjwDml1ljdHurfOiKrNunAW+9Dm1JFokLH6SThxWpTx7DXn9e41YfFNq/eVU+EE/U4sMnxLCJrBuM4denf9H+6nf++iJyft9Y3gstdrMrZ/Z2Grf2Nuz6hNP+RYGNt1vwTuvQT/fqZZC3PnnLj8h2PZxZIRx+8EWtO+hTWM72mcsojq+8kkOromEc/mw469O61p1sdKjbn4iOIwYaiMoQ7GA3vexYqEDuTjZQqvT0lu4XTVTjXXULqUD+EcJuremLqdgrHsyInpRCZO6Ol7P36Tpbeb8J94sWWssiN4MCD966BjnWjblQfXIZ9vrzGrf6FN+/uZzUMHc6PnwiHDaRGtsMjKg+uW3CzxiHXorc3zfadiKQ13ZaR+NTP9Xb6ZDb2zsfyY5fw65PuP5w+IjznQXlpwtY+KkS5jEJb2zbvT7y1idv+WELAysQ+z8xdAWxHh2D5PTJ3T6LGOLxVYoKKh82wwBfPAfICLY/ER1LDDQQlWDP/ha7AKbmOnkYjosowdJRG/Youq/2esLXTYxpDru4p28K+3FS5GZwvw6TpaWSgeWtT17DXn9e41afgfdvX6LhNOHwiWjYxE+1rlwjo6lPv6Iby4xx9O2kjIPJ+33bOQJ+EQbyohu/L5qd8fAxh9ne2uPvY/t52PXpdM93sLYuesxUPpiDEj/v/EguXJ+85Ycrap+A/vPumRWytn9eedtnPsM/voahk0h0+Nu/FK/CvC6jSShFRH1goIEor1Qehj3nLr6pvwFwFjNaOhfDGDp3BlMAYH0D18mYJSOlEnZpsNayx2yOq6gbu7c2nz0Peg+JmQ3CpFfZY3QdmGHirMS63/nANrq6yRatT7+Gvf62aOrR9Vv7Jg0bWX1y6n//FlP5cBF6OHxC3LzoWEwlBo0bdn361Z4149dmOydCsGFADcfjlyXf9/Ww+p2D4F3qGMswsvb2Bx9BImeEgfm17vH3hevT7/H13ox4Qv5sDVZ0rjkpYwYeVr+zsbWdnNoyb33ylh+2qtYQw5LuqzBi2yXYMCBnbP+i8rXP/o3q+BrIuwDOAzX8vsnktQNt/w0D6jUJ0jU1c+aOsjhr4TA1rUc9iGjkfvD69es/pxeeOXMmvYiInLtY1tz00rapxp3U9JA7cNXP8dxTMddP0sfgKZryo32HYCT+RlQf/QaWmhcS5fbMm7hXf4MZ+zEud/VujeqVXp71HQAggKnKqHs67NagyfhiNgxI9y0os37XtG2Z3pkHXpSl1xU8U8OLoCxhtvAoGLDP+pXTgLedKg8HxjUNYsR4t3RdkLc+BeRaf7j9cdHu6gIdrUf/tJWRkFOMZRbdjJPS3zlXfdrr1WEPnPQxQ+79W5zzQIK2rkA57cH7Uff2BQrUZ5/ykcT2z1u+V3s+raPx003U1zDY9tmnPpnfN2qfPSgXG1jUkmPE87W3nA6qT2nHe5/HV7w+sWNYtD2xOH385q1PrvKFzyf9268+g667cPvs+/se3vHVlqhrj/oA3fs2VGz7p9pzxvYqhwND0mApDfhu8dmqiKhc7NFANKApRcWcn3WDPq5OQXXvYE4/K3o2HKgCbU4RSdmMI9ar4UMX/qcN6Kejbsb7OFmDu9wQwx5CUWLKhz/N+nwVCxnrVsIx5OmbDuStTwHDXr9QQe0LH/ZFRTx53cdo6tOn3Pu3OPH00oO3Degf9LioHmF9+lNFc9lGI7avlIs2/C+a0BLlCsr7faNpLAHgtJLM04Ao+aqRmEp0qO3t/QWRgyXjeLeXyzze+zy+op4PSLax6Mk5YlNbRvLWJ2/5YYsn323LzNlRQN72mduQj68ynFagz9rwv+4OMqDw9q9A+3mYYBIKGr3OhwMKzFuwAOiLDDIQjRP2aCDq1z49CI6/qFeDgobvosZfciIams5T0Mwnpe8cGEuayOGQ8eSViCZIYEKV6/DYm4Fo7LBHAxH1oYLawwYUeKjLyaeIRETleoWt9tCBdH6GAMFbkWQznQeFiCaNA0Ouw4OCxkMGGYjGDQMNRNSfSg2urYshFGp86kYiojJVMRtOsWfdlyFfkyC1XzLkMDeBMrtQfi4PIjoiApiq6Nmk2+xpSTSOGGggov5Vm/BtHcpMZ9o0IqKyVT/xM3MiAAqUiw3Yy63MvAhENDnkGRFkaDLiSDSWmKOBiIiIiIiIiErDHg1EREREREREVBoGGoiIiIiIiIioNAw0EBEREREREVFpGGggIiIiIiIiotIw0EBEREREREREpWGggYiIiIiIiIhKw0AD0SQKnuKJegXL0hU0zZ30u0RERERERIUx0EB01AUv4Bo30VSv4ImTfjPbnv0tNj3x7936E7xMFyAiIiIiIiqIgQaiI27P/gbPrTfYDQMH/Tih/TVmFPHvqcZlnE8XICIiIiIiKoiBBqJJVPkIl93HWGo9hlE7lX6XiIiIiIiosB+8fv36z+mFZ86cSS8iorYdvDSf4DerbqwXwVnMND7G39Qu4ESyMPacu/jmVrLslP4xPm4my+6ZN3Gv/gZQruK6ewF7xj9h1Xoj3lRUXHr4GdRKWNi5i2XNjX0621TjTiyQ8AJPpNvYTJURf++j7nrnqU+8PM7ikv9V7L3Y39VvYKl5ofMhAHvBC/z7/DfY9MJ199g+RERERER0NLBHA1EuL/BE/Ryr9XjgAADeYLN+G/+eyJGwA1e9gntad9ld6zbuSXezcyN43+Ib9fPOTT0AeC6eyzfhBvGCIzLE+uyZN3FPvh0LMuDg7UNERERERGONgQaivu3AVW+3kyhONW7geksMP1jy72CuoWIqVnrP/Cc8j8rqnbLXbTUs4WLVeBH7RETkW5hq3EmVf4NNO5whovqZ+Lutx7jeONv+5Iwd1id8JYdFXMDl9ns3MBN7Z3991KeI4Cm+qYcBhlzbh4iIiIiIxhkDDUT9Cl60gwzQb8CID5OonML52mdQq9GCHbxcjYYZXE0MAzhR/Qxzevgfaz37qb1+ox0kOHHuTDuAsbv1h0SxkRlCffbsb7ELAFAxl3f7EBERERHR2GKggahPnRtjYGY2mWegSzwoMXOqK9fAiemoF4KLra4pKc/i0kJs/ZVTiZ4SozeM+sQCMXCxKl3Bcuy1aqWKExERERHRkcFAA1FuZzF1Lr2st6npH6UXERERERERHVsMNBDl9ga7r9LLett/eEG+oMWxpFzt5Lroen2G8+nyREREREQ01hhoIOrTCbkz7evm2gFJCuPDCzZ3sJd4Mz5s4AxOxKaIPI72zG+6p9TEKZyIslF63+LlgLNXEBERERHR+GCggahf1YudmRqs22gaL2IBhB28NO/CbedbuIDpKKGh9wjfmFHZHbyMz0bRuDzwE/tkAORpKqgxOp16dGaj2HPu4l40s0TK+dnO7BXP5+8mgw2B2J5PzAFmtSAiIiIiokPxg9evX/85vfDMmc6NCxHFBE/RlB+1k0KmzdiPcbk988QLPIlNh9lFuYrr7kftRJF75s3wpvwsLvlfQW33dHiBJ9Jt0StAv4GlZjoRZez9lKnGnfZsEZ317yNWp/z16VWPs5hSxBSZ6fq/NG5i1epdp3j9iYiIiIjoaGCPBqI8Kh/B8O9gTj+bnHlBOYuZxg38TTvIAAAXcNntXTYeZBjMBVz2b+CSHs1kcVhEPWaUzpIp/Srm/H/o9ARJOd/8Ctftq5hRknWfUlRcsu/gYwYZiIiIiIiOHPZoICIiIiIiIqLSsEcDEREREREREZWGgQYiIiIiIiIiKg0DDURERERERERUGgYaiIiIiIiIiKg0DDQQERERERERUWkYaCAiIiIiIiKi0jDQQERERERERESlYaCBiIiIiIiIiErDQAMRERERERERlYaBBiIiIiIiIiIqDQMNNDJ75k0sS1ewLN2EG6TfPQKcu2H9r+CJk36TiIiIiIiIwEADEREREREREZWJgQYiIiIiIiIiKg0DDURERERERERUGgYa6JDs4KV5E80w58Gyerc7b0PwtP3+E0f8/4kalpeuoGk8xV7qIwCwF7zAEzXKByFyQjSNF5llEbyAa8Tq0S7/FC/T9ekllrthWbqLl+n3iYiIiIiIJggDDXQoNuc/x2r9DXajBZ6L5/I+SRb9p2jKj7DpdRbtWo9wz3gRL4U98ybuybex6b2JLX2DXes27nUFAV7giXwbz61YPYCw/COsyn0krQyeoqm54X/O4pL/Gc6nihAREREREU0SBhroELzBrgdMNW7geusxlvyrmArf2byV3Uths/4Iu4qKOf8xllp3cEkJ37DWO8GD4Cm+qYcBBj1cd+sxrttqWMDFaiowAUXFJftOu+xS6zGuN86Gb77Bpr2TLJ+wA3f+UTtIMWN/BbWSKkJERERERDRhGGigw6HfgFG7gBMAUPkIP9PD5d73mYEGQMWc+xnOVwDgFM7PRcGA77EX9jrYs78Nb/pVzDXDdQM4Uf0Mc9H644EJXMBl9zOo1VPtsgBwovYxZsJ/7279IfZO0kvjczwPe1hMNe7gcjVdgoiIiIiIaPIw0ECH4CwuLVxILDkx3R04SNAvJoYknKh9FfZAiHoR7ODlajRcwsVqIufCFaxasQ8n7OCleRfNWO6HZek2NtPFUnZv3eysU78Bo3YqVYKIiIiIiGgyMdBAE+wFnkifY7XuYjeW+6Efu7EcEFPTP0q8R0RERERENMkYaKCxsLcVT944IOVqIudC8tVJ1vjS6PRcaOeLaD3GUutGe+hELzN2p8xu/fPeSSyJiIiIiIgmDAMNNAZeYKs9tOEMThRKqHgKJ6I7f+/bPqam3MFee3yEip9F+SIAINhJzUKR5QIut5NMAptaekYLIiIiIiKiycRAAx2ynVTPgsuFp4c8Pxvd+L/B8/m7yWBDIHIxPDGjWSRigYl4QklHTKN5cKABQPWz2AwVLlbV7BkziIiIiIiIJgkDDXQI3uC5HCVe/LyTVFG5io8HSapY/Qxzenjj77lYbf+NK1iWw1wMseKJwERY9p72CLs4255u8yAnav/QmWrTe4Rv2oEMIiIiIiKiycRAA43MCe1jXNLPYiq6MQ9NKSou2Xew5H6UmGayiPPNr3DdvooZJeppIER/IxHIqH6G67aaCCpM6Vcx53/VmW7zQKegPrzaXgfzNRARERER0aT7wevXr/+cXnjmzJn0IiIiIiIiIiKiA7FHAxERERERERGVhoEGIiIiIiIiIioNAw1EREREREREVBoGGoiIiIiIiIioNAw0EBEREREREVFpGGggIiIiIiIiotIw0EBEREREREREpWGggYiIiIiIiIhKw0ADEREREREREZWGgQYiIiIiIiIiKs0PXr9+/ef0wjNnzqQXEVFuO3DVz/HcSy6dsR/jcjW5jIiIiIiI6LhgjwYaf8ELuMZNNNUreOKk3yxiB656BcvSAesLnqIpXcGy+hR76feOpM73zn7dhBukP0NERERERJQPAw009vbsb/DceoPdVM+A4k7h/NxZAMDm2ov0m2179rfYBTA1dwEn0m/25RRU9zGWWuJ1vSH+JhERERER0XHGQANNpBPaX2MKAKx1vEy/CQDYwcvVNwDOYkY7lX7ziFMxFwY/kq+voFbSZYmIiIiIiPJhjoYjaC94gX+f/wab3ptwyVlM6R/j42bsyXvwFE35EXaB8MbyM5yP3gPw0riCVUt89pKfvsHcwUvzCX6z6sZ6EZzFTONj/E2t++l+X/UBsGfexL36G0C5iuvuBewZ/4RVK/yMouLSw8869XDuYllzY5/ONtW4A6NWJBDQyZ+QmTMh2n7KVVx3P4p9j3zbJi76/pl/D7HvrN/AUvNC4q19Pxs8xZP5R9iM6qOcxcziP+ByNb1dou/c3R6yheUhtgGcu/jmVvS9z2Kq8TE+TnznvOWFvUS5sP5zWduz2PoBAIEJVa7DU3TYbhPpTUhEREREROVhj4YjZs+8iXvy7dhNPQC8wa51G/eku52n85WPYNhq+B8Xq0ZsiIBzNwwyAFONf0gFGV7gifo5VuvxG2kAeIPN+m38eyqnQd/1ifO+xTfq550gAwB4Lp7LB+RMKNX+wyd6DZt4afTeNvfi23hUnLtYlmNBBgDw3mBT+xzLJdbnpXET97T4936D3fptfGPuJAuG+i3fXS6sf/027u2TG6P7c9nrjzgrdXgA4Fm4ZTIRBRERERHRMDHQcJQET/FNPbw512/gejT2v1dAofoZ5vTw39bt8Cb+BZ5EPQWUq/g40RtgB656u33TOtXo/I0l/w7mGqoYbhDJW582kW+hvX7/anu9m7fCm8vqZ5m5DWbsZHf/Yr0ZhPbwic2d1A3tfsMmzmKmcQPX/Vg9/BuYAQDrmxEnU4z2pYpL/p1kfZQS6+M9wnPrDaYy9vHu6ovuYEC/5Z27YbDpLC7Znfpft8P24D3qCmwhXN7X+mOqCw0oAKDoWKxxfAgRERER0TAx0HCERE/ZARVzsWEJJxIBhWTOgfPN8CYYwKZ2F67xDTYBcXP3MD4kQMzu0H4yrt+AEe+GXjmF87XPoMb6nBepT1t8/ZWP8LOovPd95o3iUFQuiBty71u8jN+QR9tB+WucT92Tnm9+hcu1CzgRX165gOmo/iO0Z36DTZzFJf8zqJVYQKRyAZcfXsUU3mDTznrC72K1a8aJK1ju1QMFwIx9B0ZiH1/GJaX3/uqn/Ms1EfCasb+CGhvmcaLa6Y3TDjyl9LP+hEoNbquFFodNEBERERENHQMNR0b0lB2ZN4rRUIhuF3A51sPgeThcYcZO52WIBw6AmdlkjoBuResDEeRYSK7/xHTUa+F77JXxFL4v0fCJ5A15r2ETwg5emnfRTE0Tuf/3HY69rTcA3uC5nA4YXMFymJ9jd+sP6Y8VoGK6K99DNKNGVq6Hfsq/wJYVlU0VBYDqRREgywwc9LN+IiIiIiI6LAw0TIJ4DwOIxIuZN3dtZzF1Lr3seIqGT3S63O83bEIkI+zO0XAYdrAnuqYU0GvWiUO4SVfOZARzAOBHmFLSy4iIiIiI6ChgoOEoUq52cid0vTJuFmPJHwGRePE3PZLmCW+w+yq9bB9565NBPJ0/BF3DJ/4ggggZwybgPMFzD+JGPZ6jofU4GcgZiVM4MYNw1pD0No+9UrNXjJ3MHguI7YdegQgiIiIiIhpXDDQcGdGNZUZOgf0ET9EMkz9ONe60Eyvu1v+pK1HgCbkzrWnWTAxJBeuTKepGDwBnkvkPhi41fMJZx2aPYRN7/vcAgKnG5e4gxDAFL/DvUdLNGDHcpFcehnEX9VhwsZWV8DHcD5g51bUfiIiIiIhovDHQcIScn41yLbzB8/m7qQSGInfAk0RPhR2482KsPqDiZ7VTOFH7OEwO+QbP5VTyv2hcPMQsFU0jnsFfrN+N3RTmr0+WHbw0bocJKsOb+FSJZAAkOzngIOLDJ9w1t8ewiY7EzAbBCzxRS8rRcO6MmG0hNlvEnvMUTbmzfeLa9a7/E56Y2bMtjK/Y9KLaTbhOLEeG0wmOHZwrpE+BCVWSIKkGsuIaRERERERUnh+8fv36z+mFZ850buxovLw0boZTAmabatxpT/m4Z97EvfBJ+Iz9GJejvAzOXSxHU1zqN5Ld64OnaIaJBLMk1jNAfTIpV3HdTc2EAYhpHKXsm+34+osTuRfEsIh96rHPtplSgF3vLC75sSSb+5SPJOufqkfbWczoZ7BpuV3bf/9tmqpPz/VHepVXMdfXEJii5dPLhe59m3f9HY4hQQuDQUrDh8spLomIiIiIhoY9Go6Y882vcN2+ihklmqVBmFJUXLLv4OPoxsy527kBVa7ib+LJH6OpABH2XIj3Oqh8BMO/gzn9rHi6HlHOYqZxI7mePPXZj3IWM/ad7Jt7QMyc4d/AJT35N8rTeboOADOLPepR+QiGf1XkdAhNKSrm/Dv4OPb54k5Bde8kv6eiYs7/Cpdn4+U6TtSyt//RIL7vXENNtTXRdgYPIHVUFxpQAEDRscggAxERERHRULFHA41M5+l7+sk5ERERERERHRfs0UBEREREREREpWGggYiIiIiIiIhKw0ADEREREREREZWGORqIiIiIiIiIqDTs0UBEREREREREpWGggYiIiIiIiIhKw0ADEREREREREZWGgQYiIiIiIiIiKg0DDURERERERERUGgYa6Jh6gSfqFSxLN+EG6fcOmWNANRyMW7WOFgfGlxKkayrMd+n3DsO41YeIiIhGJ4BjqDCc9HKiycVAAx1Pzjo2PQB4g+crL9LvHh7HgKRZ8Db99DvChgHpWvyG1YFxTYJ0TYL67LiFJgKYX4rvFn8ZG+lyGTbWYG0DgIe6nf9X3XlQclBgwPpQEQO0H6JJE/22PDgm56d3DswHKtTE8V/iOZ0o9/XYK6xterA0icEGohADDXQ8VS9iRgGAs7i0cCH97mCCp3ii3sSykTOAEZhQNQuADtutoZJ+P2EG8sn0spR3ZuoiK/06xhdd789CPw0AChpaNf3u6I1bffJ4Z8L4Uj38G5D2RV3q9aUK4xl7AI2tcWk/NEEcGEsa6usevPRbRKXr43oMAFBF07WhA7A0FSZ/tIgYaKDj6gIuu4+x1PoK6v539Pm9+h6b3pv00gMEMOfr8KCg4TfR/63oOUyfFv+aea/sL3LYKqh90ULra/HyZ5V0gX1U0fyihdbXLmp9XQAM27jVJ4e3W7C2x/hyfduDtaZB/tJA8lZ2kPZDpRn39kPHTvDsFiwAON2Avdw5BxzJ8y8dIf1cj1XRtHXRu3HeZICcJh4DDUSj4Kyg7gFK4yFqvX6fAOC9afR9u3SyBrd9gSWi6DjdgM+LLjrClFk/duPQgv+pLo6JbQsan5oTTbxXbz3Re+wXNVT5G0fDkud6LK7ahIg11LHCnyyacAw00Og4d7EsXUHT3AGCF2L4gXRFvNS7eNkV+t2Bq17BsvoUewD2nLtoqmF56Saa5gvsZZWP1hm+nvQ60XfVJ/a5dH3CssvSFSxrrlhm3e76W01zJ/ahSADzlhgysbhvlCHm9DTOJRYomH4vsSC/sGu6+iwA3kXJC6Pu6Qac+DCL9rCM9FPkSDRWMT08I4DzzICaGDtfVtf3gmPy3zmia3fsM9p6ulAROeuTZ/tnlo99h33KZ3VhD56Jz7brFh+mcN8Sy9a1ru+SPQ51tCrvN+F+qov//MEfvB29M1PbXoWx0Wut+dtzsBEOJeizfL76FNDv+rvaW/wzqfY2SPvptz7R8fWleCoYbMT3gwp1v23at/z7t295tmesfF/Hb3j+VZ8FwIYRnqtVmBvJ7Zu5/dHJb7BvfSJjtb/yS9Zjv6FYQ6x/4d/TdD32qX+u9oPhft+2/MdX0FU++dn09um/fQ6gwPVYdaEBBYB1i70aaLIx0ECjt/UETfl2cviB52JVvouX8XIxL42buKe52G330H2D3fptfJN5Y59Tuz6xZZ6L1XkR4BhYYGPVA6DPHjxkIuql8EWUwyHqHl5i74S3K1CXtDB5YWjbgvYvsR/EkzUsXgQAC2tZN84ba6Lr6sXFRL2cBzK0NQtefN0Iu75nXAANW7BhQFrSxqtrdz/bP65dPvYdti1oS70uWo+h6MnS9hZepd/LY8OAtFRPbXsP1n058wI9b3sOnqmQ79dT7U2Un8+66ctZn9yKrD9v+8yjSH0A2A9UyPfj+8GD12ub5pB3/xYyzO35dgXqfSvMU+Ch/p0J818629dbW+k6RyhYgxrmN2jrdT4Zl/2VykckAsUe6kupG9FUnZyuesSHYvXe/qXXv/Dvaboe/dU/r9K/byjv8eU8kCB3ld9HwfbZt0Guxyo1LOoAvFXYg21GoiONgQYauV3LxS7OYsa+g6XWYyz5N3BJAQAXv8kKHHiP8Nx6gyn9Bq63HmOp9RjXbRUAsLsa79VwCqor3l9qPcb1xtnYSnqL6nOpXZ+rmAEA79tOr4bqZ+31LoV/G/qNzrLwZdROxdYsBPYqRJzhwDDDSHjrlsgV8WnYRX25IYZdbK/Cjj0tqH4gniJb33X/YDvfiaeY+gfp76RAn7Xhx8fNLofDOtZvdT+NyCXnmPx3JubvW6JO0Xf9uoXW1z4aF9OFi8hZn1C/2z9dvv0dlm00TgOAhVtFLwTfb3a2R9Rb4KKdGLLQ+roF98M+e+AM29stcTPV9WQpDwfGfdGzqLEcaw/Ltkjkmdk+87TnAPZvwy7diXHjPuxZXZxTEorUJ49i6++rfRZqP8Xqg+066uselIt2e1iYH/5N77f2gDdbefZvMX1tz4K8dQve6Qb8aOjceh31bR321y3YFwFgE37qb/R/PhnH/ZXDhgFtPTweY+d//1PxpBnbdaxk3fQPqf65f0+L1j+vIX1fIcfx9c7ErXXxmfj5M6qLGBYav8Ev2D5H6Ny0AsDDKiMNNMEYaKBDoGLO/wqXq+FNeeUC1MUwcLD1h2TR0Ix9B0bzAk6E/z9RvSyCE973JfQ6OItL/ldQ2/X5CNM6RK+JgR6fCq+2xMXCdPE7pJIpaCy7qL0f3gScrGH2IgB42HobK/b+bHhBsJZ60uVgbR0AdMy+n3gD1U9cND+sohKP9p+shusfreA7EeBRZh+iGX1XAEAFcux/o9fn9m/TYS+7ne9wsoraz8MLwbclNNCxFoguvWH3fP3nB83W0ptIIKegsdxE7WRsLSeraP6iAQUeVr9LXhCW054rqH7YRDMVtClSnzyKrz9v++xP8foA+qc+3E+q7X1feX9B3BwP2MOlnP17kOFsT0HkKajEktQpswsH9Jzr73wyVvsrkY8oCqKkA3ottD7pfPP2zfunsW0PoPJ+rT0Uy/p1dq+A0uuPPn5PTzewEPs9HaT+eQ3l++Y9vsJgsjL7MNFboFddBmmfo1LR5qAA8LYG2YpERxsDDTR6+kWcT15zi+koAWBzJyNwoGI6CgK0Rb0XPsP51Du56R93zUxxYrq/3hAHC+BvppcdslT3TAA4917W0/gqFmaV7u6eYTfP7AvarDGZZeVEyCdKGDb3QbqxHbK+t3/o4mx3wrPoorWMnAVjxluTY21HFl16ASgXbTRTga08RHvI6G59TYK0VIeXGbjJ054r0H4qnmDVlySoD0w473rvnWL16V/h9edtn30qXB/omE0EChHrTZRnBp8sefZvQUPangCA03PQEuvWsXhQL6Q+zyfjub/61TsYDsS+b+aN9LDqv//vaTKIOkj98xrW90W+4yscHuetrSTyhQQbK6hvd/dmK94+iWiUGGggop4qH4iIfLy7p3jSknUDH8D8MmtM5mEI4P8BOea/pnGlnNZhL4snbsVF7SGP/O258qErZsk4DXjrdWhLskis9iCd/KxIffIY9vrzGrf6oND+nRzjuL8K6DnUqtMDZJTav6exngji97RHQGHM6p9PzuMrlsdCiwUP5MzebMekfRJNAAYaaDwEO9hNLzsWKpC7B2cfHSc1zJ2Od/eMunmmn6QBiJ48QE/NbR51dT0M3WOUj4V3Psato0xZ0tNbul80UY13jS2kAvlHyO5u3aPrddH2XHm/CfeLFlrLIjeDAg/eejp5W4H65DLs9ec1bvUpvn+Ppa7zyRjuryJ6PvF/ha2Mp+RDF/2etvNziN/T7N6BY1j/PHIfX9G1hQjUtp3W0fjUT/VmOybtk2gCMNBAY2HP/ha7AKbmOnkYjosoIdDRHKYXdQcPu3tGwyZ+qnWNlQ/eiktVZXahu2vuyEUXIhnjoNtJp46udv6JjP3Q5Z2DlTUvvXTiiO7q/Y/bHbg9nxS5Gdyvw+RkqeR/eeuT17DXn9e41Wfg/TsqIzh+s84n47a/8ome+B8wy8OP5IPPn6WqhPkwwu26sQYrs3dgifUfQfvJkvf4audc+EUYqI2CBV80EzkqIkeifb4K806MT4IuopFjoIFGL5WHYc+5i2/qbwCcxYyWzsUwhs6dwRQAWN/AdTJmyUiphF0arLXubNNHQeXDRejh8Alx8bD/OOBEpupw/vjMMZlD1s7y/WuzPeYz2DCghuM3j4xUHoZgw8D8moeu4SvRFJCxbNvBhimm1uuU6hb/XL/zj28Y4XRzGfOaj6mo27K3Nr/vPO5p/bdnB+aXBsyNILnudz6wja5hPEXr069hr7+tz/Yzsvrk1P/+HbKix29ef/ARJMbAZ59PxnV/9ScKkAPWfTXRLoMNs5NctmvWpBEI8yt4v12B8Z2VmcOjUP1H1X5yynd8eVj9zkHwLnUOzTBQ+xzR75ezFg4z1XpfLxEddww00Oh5j3BPuoLl8HVPc0VvhsY/dCVlzCV4imZ8vfU3AIBNrbOsmTV9Zl6VC5hRAOANnmuft9fdc/3VBTQUAFY62/SAEnOLhxcT23XI7WVl/YiGWaLXb2H+t55IJpYuEvvhT9QhnD8+0RUykpobXQ6fulj3O8vU+HRrecu3E2bV22M+5fsWvNM6Gn1ORbmvvPUpKrFPw++A7uzc7W65sQRZ8v26mMruogi6ZIp/7n48EWOv+gcwfy3qAHio26W26v7l3f4na3g4qwDRPO6xz4pX8njJ3Z4BbG1bqN+Xk+teqmcnT81Zn9yGvf5Iv+1nVPXpU5H9O1RFj9+8tuuQU2Pgs88n47W/8qp8+DCctjPZLsU2FUO0BkkuW1yYFHLbgrXeO9iRu/6jaj99ynt8Vd4TD2S8NQ3yUuocei1Krhv7QOH2OarfLwcizjAHxhlokjHQQIduSlEx59+BUTsCvRmAcMaLO5jTz4qeDQeqQJtTRJIjY1g/asMlegd48LZ7XxjhZA3uckN0Ew9Fifwehk9nRquK5rKNxunO31Yu2vC/aEJLlDta2skRu3qVVFD7wkfjYmxbnw6nsvsgXi5NfM6+qIgLwwNVoP1cD8sqaPRqD2NIJGtsQI+1iZ5yt+cqFjLWrYRjjLv3V876FDDs9Qv9t5/R1KdPuffvsBU9fvv0/oLIGZLRPrPPJ2O2v3IL2+VsdK4K7XM8jkr7JrxXEkigQP2H3H7yynt8RdNYAsBppSsYIZLrGomHNcXa52h+vwLzlphNZLH4lMxEx8EPXr9+/ef0wjNnzqQXEQ3OuYtlzQX0G1hqXki/e8wFMFUZdU9Bw3dR4y8PHWTDgHTfAi7aTGpFRHRchOd2ZTYrYDCJxAwV9W1A/7TV3dPknQNjSRM5HJbdjKEmYyYwocp1eEoDvstAA0029mggGokKag8bUOChLiej8kRERHTcBQieGWGOhf1zHU2WcBYNQGyjxHsBgrdh8ssjMV21A0MWQ1YaDxlkIGKggWhUKjW4ti6GUKjxqe6IiIjoWNowwrwBMuQ1S9yELjczcx1NpjAPFAArnePmmgw5TH7Zledm7AQwVdHzQrfZc5UIDDQQjVi1Cd/Wocz0MS0VERERHRsiT8ER6P4/YtVPwnwUXfkWFCgXG7CXW0dimIk8I4IMzfGOiBCNDHM0EBEREREREVFp2KOBiIiIiIiIiErDQAMRERERERERlYaBBiIiIiIiIiIqDQMNRERERERERFQaBhqIiIiIiIiIqDQMNBDREeTAUCVIkgozSL9HA3EMqIaD7M0awDFUGE56ORERERFRBwMNRMeQYxzzm3BnDZYHAB7qK7zrLY1jQNIseJt++p3QK6xterA0icEGIiIiIuqJgQbqFpgwVBUS7yQII2gPRdZfnYWuAICCxkI1/S4VEZhQNQuADtutoZJ+HwBQRdO1oQOwtGMcyCIiIiKigTDQQN1ebcHyvPRSmlTDbg+F1l9F022h1XJRy74jplwCmPN1eFDQ8JvYP3RTRdPWRW+SebPHEAsiIiIimmQMNBARTTpnBXUPUBoP+wvcVJsQsYY6OHKFiIiIiNImNtAQOAZUVYIkhS9VheGkns05hngvo0t3YKqQpPQ45QCmKkFSxVO+5N9QoZrpBGt5y4cCM0yEt0/d0am/agZAECXPiz5jIPGR6LtKEiTNEsssrbMsfKlF+0oHJlRJgiQZ6N6aEMn9wu/d9Sf6/b6ASFZnpvatpMLI3JYFt/+4CRwx9CC2n6Jd2K3P7TNIe+hnfxVaf7i/UmUyDs92e1LNQCQ3DL+n6STrV7j+ReQ5HmMyz1Wp/ZV9PkqJjsGuQgHMW2LIxGJfUQahutCAAsC6VUKvBp4fiIiIiI6VCQw0iItHWbOQ6K3tebC0+e6L2IJsQ039DQ9eXcN8jz/Qd3nHgCTXw0R4Ic+DpckZNxChrRWospb6jAVtlN2eKzUs6gBgYS2rms4aLADQF5NPVHN+X8eQodVT+xYerLoGOaN8pO/tP2YCx4Aka30PPSi6ffqWc38N3dYKVM2CqI6H+poJc75TP6++kryxHUX9cxyPTle7DOtT1yCHN8AAUJFnYgV6eLUFD4AyfS65PLCx6gHQZw8YMpESHdPeKux0xfPi+YGIiIjoWJm4QENgzqPuQSSRs320Wi3x8n3Yeh8X6/3w6qhbHhTdhh+u37d18daq3XUz0X95B0aYrK3hx+tui8R41q3MQIlnWWLsdfR9/QZ0pG4Qqs3O+sK/Dd3uLAtfbo4nnmnVWbFeK+NOwlkTT7X12fitTpHvq0Bv2PD9WL19kbwuu3ye7Z9P9JR539c+NzcHCkzMa5b4zvG23PLRCHdhtz63T6H2kGN/FVp/BTW3857fUGLvZfMsC57SgN+KvmMddU+H3WqJrv/YhN/ewTnqP4C+jkeIm2jN8rrOVb4tehJkDVvY7HyZnmbk5DEc2KsQcYZcYQYAwLlpBYCH1YEjDZN3fiAiIiI6ziYs0OBgpR5euPsuatXYBXelgmqz2d/45D7otg+3WW1nbq9UF9BQAHhbeJUqiz7LB+YtWGGytlolXvcqmg8bUHpe8Ke+b6UGcU3vYSurMsNSnQ0v6NdS3aMdrFkAlAbiEwgU+b7VpotmrYp4cVSq4fftrZ/tP26iG0Sl8RDNeFtGBXLsf3FFt08/iuyv4VPQeFhDBecwHcYllMZC5pP70dW/v+OxfXNtJ89VlWoNbnij2x62cG4aorm2zxaJbv8AEPibABSkOzS82hLnxPTyflS0udTfHQDPD0RERETHxmQFGgIfm0B399vS6ZhN3PgBnaexWRnd+ysvbgg81OWMJ+NyHV6vC/6M7yueRI5aFQsNpbt7dNgtWl9MTqlX7PtmjcHeL2cB+t7+eVVqbtcT+q5Xs+jaOzeIc1q67vspsn36U2x/DZkyh+Tm6Z2HYGT17+t4DG+uoSOzo0F0Ux7d6FZkJPpjRcMhYr0kxPebQbJDQwB/M/7/wzRZ5wciIiKi42yyAg29xigfCeN0Q1Bc9AQ0nkBOPLlN31AV+b4BTDVrDPZxFG2f9I3jfoa5fYrsr3EypvVXppF9tur00Ej8f9MXx9WrLXiKDl3pfqo/znh+ICIiIjoeJivQEOp+ynUUVCDyvSloxMcXp18DPCEfiYqGOSX+pFU8ue3uzl7g+4ZT9AE67NRnojQAozT0HA1AKsfAAYa6fQrsr7EypvXv2TX/FUSHligQEdY/LO+sWVDmFrAwp4R5BMIb867ARfS9x8QEnR+IiIiIjrPJCjSE45i7xwDnFES5HkarzMRrh6eCmkhVL76HswarR/f/vN9XjEEPb0q6V3fMRDdaGXk2AhO3MrqCD3v75N1f42a86h/1WDhgFoYZuT2coDP8wsGaJY6pijYHJZ5kMlY+En3vrnbUj9J7ifH8QERERHQcTFagITaFmqYacILYBWoQwDGMZNbxdmCik408cEwxNV2s2Ki0E6/V53vM+16S+PfuOR/9AMLx5d7qCow1K3PMOgb4volM8IEDQz1oDPZwDDtHQztL/y0T0W4KHANqOD69l9zbp8/2UHR/9bv+YStcfwBwDKiSBElSs2cuyK0CbU4EDixNTWyXwDGhhjssPguDmOJyE765BisaUlORMQMPq7aNLS87IBBNjZk128NBxLCG7EBAQp7tMyHnByIiIqLjbLICDQCqzXAqM8+CJsux5GEyNCs16DfqxhtLOCZrdXhQoOuH0Ne2UsNDkepczPue7obfz0V8P+LfW4ttI0mCWsofCJO+eRYsKz1lXUzO7xvdeMCrd8rKGiwPUMQ92/HSTghYh9ZunxY8RUcjY+rHwtun3/aQc391Ptfn+gMzvFkNv2vYq8jSepTPq2j9EcC8ZYXBHQ/19JyTBVVqD8XMBqntIs5BgNLw0R2n8lCvW4A+Gw41EDMqePU6rIypLUWRcAaF3D29otkg0gk30/JuH54fiIiIiI66iQs0AFU0Wz5sXREXnRFFgW4/TD05q6Dm+mjosZKKDtt30ZyNlxudSs2FbzegD/XKWHzvrm1UovZFf1eSt6Rc37dSg+s3kNhdig7b9/EwfDp8vFTR9G00YttG0W34bhNaolyo8Pbpvz3k2l9t/a9/2IrWX1vUw7oraOzXoHMJt0sjWndI0dGwfbjpx/xRz5BUT4eo50vvKSyj3hMWtBw5Q8T0kt2zQXTLv314fiAiIiI62n7w+vXrP6cXnjlzJr2IqFyOAUmzoDQybpiIaMTEjAx1T0HDdzOHKiQEphiiozTguwcFGgrg+YGIiIjoSJvAHg10uAIEphGOMdexyJsIojFQQe1hAwo81GXjgCEUDgxZDCFrPCw7yMDzAxEREdFxwEADFeDA6BoPvd9LhWka4b9lyHVL3KT4zdSUdUR0aCo1uLYeJss1eyRXDGCqGiwo0O0+ej70y+H5gYiIiOg4YaCBRk6Miy7xJoWIylFtwrd1KBnTYEbkGRFk6E5EWQ6eH4iIiIiOPuZoICIiIiIiIqLSsEcDEREREREREZWGgQYiIiIiIiIiKg0DDURERERERERUGgYaiIiIiIiIiKg0DDQQERERERERUWkYaCAiouPDMaAaDoL0cjqCAjiGCsNJLyciIqJxx0ADdTgGJEmCxKs6IjqKHAOSZsHb9NPv0JH0CmubHixNYrCBiIjoiGGggY6lwDFhqBIkSYJq7v9sM15WkiRIqgrD6f2ZvOXpiAlMGKrKgNtRE5hQNQuADtutoZJ+P+ZP/2HiP/9ewq8/lPCbX+1/7MbL/vpDCb/+exX/+R+9P5O3PO2niqZrQwdgaSoOOJUTERHRGGGggY6RAI5pQJUkyFodlpd+v1tgqt1lPQ+WJmcGKPKWpyPo1RYsr4/GQ2MkgDlfhwcFDb+JavptAECAt78y8JsPJfzbP9ax8/v0+93+9Cu1u+zvPez8o5wZoMhbnvpRRdPWAXioz5scEkNERHREMNBAx0ZgzkOrW/AAKLoNu6GkiyQFJubr4oZSt320Wi20Wi34tg4FgFefTz5By1ueiEbDWUHdA5TGQ9R6dGX406/m8dsHFv4I4IeXbPz0kwPOD9smfvtAHO+nfunj589a+PmzFv72lzp+COCPD+bhbw9QnvpXbULEGupYYUcjIiKiI2FyAg2BCVWSIEkGsq9THBiSBEnK6J4Z5OkqHz5Vj5eXVBhmVnKyAKYqQVLFU5rAiX9OhZr5mf4EpgpJOmBca7RNsgoFDkxDrEOSJKiq2WO75dg+YQ4I1QyAwEl9xkDWR/Ko1BahKzpsvwW3WcW5dIGUwF4VQYmGj2a1c3dSqTbxsKGIJ2ixq9q85cdZsq312Gf75OzIbl9523Pe8qFhtLfou0oSJM0Syyytsyx8Fe61MmHnn27h3+r5/QcRwLwlhkws9ooyAPiLv1vEqR/r+KnVws8WqvhhukDKn7xVEZT4xMdf/lVnvX/xV80wSOHhd4863yZv+fGUp/0IQVf55GcHa88d1YUGFADWLfZqICIiOgomJ9BQqWFRBwALa1nXes4aLADQF5NPxBwDkpzdVT7rBswxZPFUPdHz2oNV1yBnlI/YhgpZi3/Og1fXMN91ldafijyTXtTt1Za4cZ5O3pIrWIMqa6jHvrTn1aGFNyQJObcPAGBrBaqspT5jQRu4W2wVTbeJWAxgHwHsVQ+Agjkt9YHAwcpqWLlNP6xT3vLjStzwJdtatM/K65GRtz33XX6s2lsOE3b+GanAxqoHQJ/tMWQiUsVf/nMT751OL88SYOc34ng/paSO920Hv/tNuKFe+/hTofLjKW/7cQwJclf5feRszwnRMeStwj4CzZKIiGjSTU6gAUB1VgcAWBlX+s6aeIqpz8YvVR0YYXKxht/pKt/ybeji0UrGjZkCvWHD98OyUXn0Kg/Aq6NueVB0G36sOz4AeKv2QDdDm/7Bn56RkxfGnmXBg9IZHuA3RP27LvCKbJ/O+hsHrn+YXmHLA6DMIR43CEwjeVPqbeFVofL5Rb0E9n0ddDF+gMCchxj9Edv+rRZavg9b7yM41Y+87bnv8kNsb9VmZ33h34Zud5aFL3efJ+YHmcTzzyhEPY2S225Qr/DH3wP48RxOxQITf/qVgd/oWicHw++38MdC5cdVjvYTmLhlic80YuWjtgOlAb/lxgJnRdpz0rlp0TNkdXQ/FERERFTQRAUaUJ0NL5jWUt13HaxZ4sJoIXatGpi3YIXJxWqV2A1GpYrmwwaUjAueatNFs1ZFvDgqVYT3GD3ptg+3WW1nSq9UFyB64xe8cT03LfIGbEWfTnaTBoDA3wSgINWhIbxwdDvDAyq1sP4e2qsruH0Esf7aAesfqbBrvVyPgiy22P695C0/Fhys1MVT18T2B4BKBdVms+f49rzytud+yh/59jZJ558ReiUigBnnsRJtO/jPv5fwbw8s/BEKTv3Sxk9+nC4Uk7f8mMjVfqIecam8GL3aTpH2nFbR5lK/a0RERDSuJivQgCoWGkp39+Ww27K+mJwSTVzAeqjLGU+W5Tq8zAuerDGuEqJh39l0zHb196+g5rbQavXKoH6AiozE8+moe3HsKa74fjNIdWjo7r7dfpKUVGz79L/+UXkV75WgNGD7LprV3nctecv3q1Jzu56gd72ahVqDEPjYRPb2L1fe9txf+aPf3ibo/NPOSRG95LAnjQUtsTxjDH8uAfzN9LJy/THeK+HHDfzUcvGXf9X7eM9bPpeu7dp5DdjZKZSj/UTB7PpKIt9JECbmhDKdyJNTrD0TERHRUTVhgYbOE5F4QinRbVlHsudtkQvYAKaaNcb1MJzDtBLLGfBqC56iQ1cOfmrUnyLbZwx59XCminCoiFvbP8dD3vLjpEdOjqPheLS3yTn/HBO/r4czVShiJol/ru2f4yFv+bGSs/3E8o5oseCBHEYlkoGzIu2ZiIiIjrKJCzSgomFOiT/ZF92WlcZC6sldBSKfYnL8adcr/oQ5epIDMfNBvFw0bHV0wvqH3VedNQvK3AIW5pRw3HV44Zd66tS/AttnrISBGABQ9LBXQixiEPUAaW+fvOXzG0WOBhzZp4ZHvb2FJuX8U6nBTdTVD4cW6bATy+Nj+IuItlPZzuGH0VCHH+thr4RYRbftsMfCdDh7Rd7yBXVt185r4Kafu/1EQ350KPEOQoqOhu2n6lOgPRMREdGRNnmBBlRQE6mrxZN9Zw1W1kwCBRJPiZwH4U1D9+pGrtM93MGaJb5jRZuDEk+CNyMnumvnkXf7jJfODYq+2D1TRXsqyzkt3D55y4+hsKtzd46AnIIo18NoHe32Fpmc88+oRNup3PhZBT/838W/Tv0f3TNVtKey/JmGvyhUfvzkbT/tnAsPm3DdWLDAbSbzv4TytudMR7pXFhER0WSZwEBDJymbt7oCY83KHMMNxBJP1ef3nUc8LZGpPUwamDnGdcjEFJeb8M01WFEuhoqMGXhYtW1seYNdsBXdPuOiPS+7lpzHPXAMyGHSxPgNYN7yeQ09R0O8q7NqwAlieywI4BhGcrx8OzDRyQYfOKbITxErNioja2/x7x0ffF6WCTn/jEo0lW/WbB6DeO9qAz8EsPOPKv7zPzpb/0//YeDfHojjPT6VZd7y4ypf+/GwajsIguDA9lm0PceJYUaDnWeJiIhoNCYz0BAlZfMsWNY+06JVango0meLecTT3dhTicyiCyl49U7ZMGlgomvpSHmo163YHPMig7hXr8PKmNoyl5zbZ+hSidLEzT/g1eXsoQfx+mudMu0xxnaqW3fe8mOo2gynqvMsaHJsu8gyNCs1iDrq5h9L4CZrdZGfQs/sSz1co2pv8e8d28+SJEEt5Q9M0vlnBKJZDg7qqbNt4jcfSvh1+BI3/8AfH8jtZb9eia3hdA0//URs/51/7JT5t38Ux/upX7qQ4z0X8pYfM3nbTxTg8eoaZFnuap+qYSaSROZtz92ioRrJKYaJiIhoPE1ooCF2UdWVhC2pUnPh2w3oWVdaaZUaXL8h5gQPKYoO2/fxUNy5jFb0ZBbJm5lqe66ywaeEy7V9xpCofz9jjIW85cdPFc2WD1tX2m0DAKAo0O3kNHVi5gEfjUSDDvNTzMbLjc5o2pv43l3bqEQTcf5JGHAWi31VoM0poqdOCTlM4v7i71z87S/1Tv4FiBwMP/mlj7/8q9iyUN7yYyVv+4kCPBDnj3QT9aw6NNlIBH9ytecUMVQjnWSSiIiIxtUPXr9+/ef0wjNnzqQXHT+OAUmzoDR8uOP+GJqIjheef0omZkyoewoa/vj3LDr6ou0N6HZGIsrAgSFrIodDGfsjMKHKdXhKA77LQAMREdFRMIE9GgIEpgFVE1PKLQ58BURE1C+ef4ajgtrDBhR4qKeeotMwvMJWOx9sOj9DgODVWpjHJcwNNBAHhiyGbDUeMshARER0VExOoMExwnGgMuS6JS5a/GF04x0GB0bXeNb9XgeNdR13k/Z96Wgp0D7No3z+OSIqNbi2HiY7NQslG6R+iVw/AGBp6fwMcjtvTfe0rXkFMFXRM+Io5MAhIiKijskJNMSIcae8aCGi0eP5Z4iqTZFDZYBpe6k/1aYPu6FD6cq3oEDRG7D9VinDguQZEWToGp5BREREY21yczQQERERERERUekmskcDEREREREREQ0HAw1EREREREREVBoGGoiIiIiIiIioNAw0EBEREREREVFpGGggIiIiIiIiotIw0DA0L/BEvYJl6SbccZvQ3TGgGg7nmZ94AZwHKtRrEqRrEtRnx69FBM9USNckSNdUqA/Y5g+PA+NLsR/Md+n3iIjy4PmEBnX8r3/oaBm/69UAjqHCcNLL82GgYVicdWx6APAGz1depN89PI4BSbPgbfrpd7q9c2DGTsTRAZD4Yd8wUssdGD1P3OF7DwZstYcmgPllfFuIl7GRLhfJW36UAphfytDWPXjpt44lD966BvlLcwxO3hNoYw3WNgB4qNu9jv+8x0ve8kTUv/KOL+eB1H3tMIi+zidjJrpWOrLXP8fJpF3/DAHb8xAN6Xo11/0aALzC2qYHS5MGCjYw0DAs1YuYUQDgLC4tXEi/O5jgKZ6oN7Fs5AxgBCZUzQKgw3ZrqKTfT3BgLGmo930inoF8Mr0srYrZiwDWb5V3wdEWXRQZyD4ewgOq7AP3qHpnY3UbABQ0lltofd2C++H+LeIoqnzoovV1C61lGzoAbK/CLr3t0YHen4V+GqK9adX0u+PtnQnjS3WiLqiCDTN8YtzrAqQjXla6JkH6UoWx0fszecsTdRmn88kEnh+OvAm5/qH+jMvv3eiuV/u5XwOAKpquqIulqTCzq30gBhqG5gIuu4+x1PoKatnnr1ffY9N7k156gADmfB0eFDT8Jg76aQ6e3YIFAKcbsMMTsXi5qO3bQM9h+rT418x73V+8qjWgHKWnEAkV1L7obAt/VkkXSMlbfoTebsEDoMw+PGB/HhMnq1iYVQB42HqbfpOGr4rmFwedP/IeL3nLF/R2C9Z2f+HWoy2A88yAek2CfL8ePjHeX/BM7S677cG6L2desOUtT4dpRMdXIf2cT0ZkYs4Px8ikXf9QhjH+vRvZ9er+92tCFU1bF73H5os9qGWgYVI4K6h7gNJ4iFqv9hTz6q0nor2/qKG634n4vWnkuvw4WcPiRQDraz16HhANR+W9mfQiIgoFz+ahrVniAvyiDfugG8t3JubXxA2W/qnfuSH9VIcCwFubT/Zcy1ueiIhoCMb9924o16t579ci1SZErKGOlQI3bpMVaHDuYlm6gqa5AwQvxPAD6Yp4qXfxsitUswNXvYJl9Sn2AOw5d9FUw/LSTTTNF9jLKh+tM3w96bVjuuoT+1y6PmHZZekKljVXLLNud/2tprkT+1AkgHlLDJlY7CfKUMTpaZxLLFAw/V5iQVv1Ax2AhVv7RfTQGU+kPguAd1Hyp6j7kQFnn4M0l3f9d20ahWDDgJquz7NDSAxTaPuHUeLE2N6s+ouhLOqzANgQUWXpmgpzI7k/MqO+Y7a/+vLODL/jAUN7MsYx990e9hkzGSUZKjK+Gv1+PvqO7b9f3hjvkWuPZZQg3bfEsnWt67sk2mfu7R9un3A4V3I/q1DT+7jQ8di/yoeL0E/rsJdbcD+pps7n3YLvVsOngj6a73d+VyrvN/EwfBoT77mWt3wuAxxf+c4n/Z7fRNlc+zf61EbYFf/A9RfT9/mkqHdOqv4StPV0oSJynk+GebwUOT/Ehfmv2uW+NHu027zts0/H6HgZignbPtm/Tyldv+/x94bQnod5/B7137tB5bhfi1QXGlAAWLfy92qYrEBDZOsJmvLt5PADz8WqfBcv4+ViXho3cU9zsdvuIfcGu/Xb+Cbzxj6ndn1iyzwXq/MiwDGwwMaqB0Cf7T1kon1iFS9xYeChvhQ/AWacZE7W4H7dQuuLKOdD1N1yny6N7y+gcRrw1lZ6n4zi3q5AXdJS3Y8saP+Sv8F32TAgLWV3ber6riPgPFAh37fgpeuzNoTEMP3Ksf2dB7KIEie6oYX1z9qeb1eg3hdRZcBD/TsT5r909kdXGxmz/dW3qCcPLKxl/ZhvrImhShcXE8fNuLSHvqLrUXfU9w76yaY0u2s/e/DWNMxn3ajkOB7zqaL5RXP/HmxtAezfil5vcx+kgtfvHKz8Nvwx+4Mf1ilv+ZwKHl95zye5z2+hfvdvp6tt4mIAVkbZIoZ9Pgk2DEhL2ngNJRja8VKMgjWoYf6riLddh5a1/XO2z74dk+NlaCZs+wzy+z709jy04/cI/94VVeR+LVKpYVEH4K3CzlnpiQw07FoudnEWM/YdLLUeY8m/gUsKALj4TVbgwHuE59YbTOk3cL31GEutx7huqwCA3dV4r4ZTUF3x/lLrMa43zsZW0ltUn0vt+lzFDAB433Z6NVQ/a693Kfzb0G90loUvo3YqtmYhsEVkTZ/tGWYYsQq0nyq9T+Ip3rolcktE3Y+WGyUlSnFg3Bc9PRrLna5NrWVbJJoaStLKfWwY0NbFyan9Xb9uwf9URBKxXcdKH9vrYAHMX4unML3HZXXk2/4K9FkbfjyvR5TYJmN7eusWvNMN+F9HZeqob+uwv27BvggAm/Dbnxlwf4XdxqxfmwNHw4sQPXkA67vuH1TnO7E/9A9ix+jI2kP/Nt8e/AvTaVPjPMb7AO83O+3rU7HfcNHuLAtfpSQQ266jvu5BuWjDb+9j8Te939pdFyL5jsdheYWtbQCn56DFLlCCZ0byonB7C68Klc8v9/FV6HyS7/wG5Nm/nYvTKEGdePmwZ3VxTTCIYZ9P3pmYv2+JbRRbf+trH42L6cJFFDufDOV4GeD8ENWnvY161qdI++zf0T9eiurv+mcSt0++33dh2O15KMdvbnl/v/KWz3DI16tZzk2LnhirOSMNExloAFTM+V/hcjW8Ka9cgLoYBg62/pAsGpqx78BoXsCJ8P8nqpdFcML7voReB2dxyf8Kars+H2Fah+g10bMV9u/Vlri4mN7vQWMU6Qpf4iYvfcHTQuuTcoIVlQ8XRSbTX/cTlVTQWHZRi7ofnayJ2SsyE6VY0OI9MNovTUSgY0TCSwWN5SZqJ2Mnz5NVNH8hklaufndw7crS/vH6NPZdAVTer8ENf0j62149tLt7yqhvK9BnfTTfTxfK0v/2r37iovlhFZV4dPRkONtIJpEHpBJLSqPMLmT2vBl4f52s4eGsDmW7Di3sqbNvV8GyvT8bXkCk85M4WFsXiVcXYvtj6O0hj/BHz3sbnZCS3TgBIHi7Kc4zB3TBo276pz7cT6rtmYAqYa+v7AuR/o/HkQm7tspr0UWnLerfS97y/ch5fBU5n+Q/vwn59m9aBdUPm2hm3LTmMezzSaer8MNEV2GgAjn2v9Ebt+NF1Ke9jXrUp0j7zOXYHi895L3+maTtM9Dv+7Db87gdvwV+v/KWxxhcr2aoaHOinWzla2WTGWjQL+J8+je7elE8MdjcyQgcqJiOggBtUe+Fz3A+9U5u+sddM1OcmO6vN8TBAvib6WXjIMyq2k9UMt09DcC59/p7mrEfkfAyY3jINQnSUh1e4sQ7bOGPF3TMZv34RT96RX9IBpFr+2eNOdxnjG4q4gvoWOxxQT1e+6uIKJNwqidP2A1T/3l8ytkxaw8n5eQT1Wh6sNjxK/ZPv9MmUYeO2cSNGWJPbzNmCMp1PA7fq/hTmtMN2Msumu/3jmrnLd+/PMdX0fNJzvMbkGP/Rj39RJ3UByacd1kX3kUM/3wSJZDu6ip82MbseOm3PsXaZx5H/XgZtgnaPoP8vg+7Pfe5/lHJ+/uVt/xxNJmBBhoLlQ/mhjDVpeh2n+iF8XULrahrflsAP7vzyuHqStIS6TzxLyzq7rlsQz/twTog621+Acwvs8YclqGE/fXOxPyaGKoRTdm67xONIRBtPvnkUDxp7HEDMMz2kEv496IxhW+34J3WoZ/u9RSCJsJ2PczcHXad/eKAWYryls+p/+OryPlkmOc3ofKhK7KSnwa89Tq0JVkkentQPNFbwtDOJ9H2zLgRoQKKtM/8jvrxkkuB65/J2T7D/n0vsn3GUN7fr7zl48bgerUsDDREgh3sppcdCxXIAw/uHJL2VJfZY7OGqwL5R8geHjKEoSJ96/lEKRrz1etCMYeTVTR/rqP0rmcbK6hvQwR7UttUDMUZRAn7K0xmpP88x8m+bCc1zJ2OPykQTxp7DRcZSXvoS7j9w/o431lQfrqAhZ8q4bjQ8EJiZPWhwxW7MT2th09pYk/Zoidi7faQt3xBfR9fBc4nQz2/dVTeb8L9ooXWssjNoMCDt15Ossbhn0/iOXWouALts4hjcLzkluf6Z2K2z7B/3wtsn7GS9/crb/kM43C9WhIGGkJ79rfYBTA118nDcFxECTxyDqsZCZFwp6yoaT6i+9Xh/O1u0YmpR4LMKMvxj+REd71B9ZP8p19iDF/4IzyEE+N47a+iKqiFFzmr3wXhfs3qblxie3jnYCWcz3kQne6KDtbWRZ0rH8xBiQ9/6qc+k6ak7T9eogtHQP95d+bu9nj9n2rt7Nb5yhfV7/GV/3wy7PNbl5MiN4P7dZgsrZ9hhj2VeD7JFO3fjJu3dyZu7dsVnLLkbZ/FHKPjpYCDr38mZ/sM+/c97/YZL3l/v/KWPyJehTOP7Jvwr9tkBhpSeRj2nLv4pv4GwFnMaOlcDGPo3BlMAYD1DVwnY5aMlErYpcFaK3OIQknyTnVZoqhbnLc232Pe4lGKxucC1n0VZmxe4WDDhBrO1Z3McjyeEpmPwyQ4+4857M9I99eGIaZ7/dIov7dNOB7a++0KjO+szDGIhdpDmNAp3kMo2DDF+MBOqcLEFFib8J+twYq6SJ+UMQMPq9/Z2NrunvrqWIhv16z5viND3v7jpqqF82rfT86DHmwYkNc8pMfr5y1fWF/HV/HzybDOb4AD80sD5kaQrMs7H9jGgMMSCpxPcmpn6Y9lSQ82DKjh+Otjq9/zQ05F22duR/Z4GZEJ2T7D/n0vun3GRd7fr7zlBxJdr15Ty79ejXH+/+3dwYvbaJ7G8Sf4Xxgm9FDFHkzMEurQDNMU7yL27EYsU/Sh6D4FGrRR5uBFOxRzqeRQnVuYFpil4yAYqFMvOYTqg4hOczIjQi9DDkUYFATVkN0hQ/8LJnuQbMsqu8oqyxW7/P2AIZHeklWy5JIfv+/vPQmy/bar7fdmBg3x9/qu8aWO8sd3dj/rzeD/x7mijJWkP6hX3K73kyTp1B4v602bPrOq5mfaMZL0k/5s/+do2zO33z6QbyQF5eq5q2CYGM/4pmWZbnd0vGek4bzF5QI15Yv2fTe/mLNH9mYhBU/Hy6ziPMYV2zc/P84r0cbynrbGP/c0u1Ezl1VJ/siGf0j0zhsfy7wIjllo/G+u6uu1gOivQXZz/C6Qt/B8zWXDQqiBglezb+4rnw/Dbp6FgktZWyNnd7JCydXF8k4CaXcv7zqaVciOTzwF5amvKp7/S29/VcXjWngdzm3/Wo7/Es04nvFJ4XcuznVevB4nzs/8Q+uD0tzcVdtf2XzXV9X3k6W/v0l68y6Q97Q1uS+PsmvrfHftaiq/n8w4H2ZeX6OCkuMq6a2ngeItR/6cU1FeqOr+XJd53x+qqnh+Xt36Xi/XY5OOT4W/71VVPD5LN+P9ZP3+3mXTteZ7X3PNu6JIWc6wr4o5w4YGDSW/NJb2k2/ldtagN4OUz3jxrfadf8p6NlyqKXvfSApku8s6CReQ36AsMrXWVWXFt3w5WzXcCC2sqc7D4bjcgi1H/oNk6pzcK+V2R/0jP+vmmzNbjsKjRMf5t2mLuq7Xq/11uXhovUY3GeeKShVVPR+y9v5uofVwfOCvi+2uaPjNXembz+E3mdOnvroJ8tdh10y+Ducs+fivoGLxwpH8/JwWilZtf1XzXV8V30+W/v7W1sGUfTEzr/eqqr6fVNVW7yiUX9h/sxsqediTPdHuppn3/aG6SufnAtbzerk+G3F8ruHve6Xjs4Kq/v2q2v5qmrL/bfiebuTPCsIWlHYfZ7OtHE7OtjKPW2dnZx/KC7e3t8uLbobov3Rk9yXn93rU+6y89oZL1bVa8mIjP+mrU/VMWbL0paXWSSznwfpWVl0rr101ngYye3XcYK6HqudY9Ke8C+OWr+Rh9TfXC23g8QeuDdcXML9Nu16q/r5V2wMLqnq/ulRpV1bLU2x8Jf3q98L0aNgYTXWO/Ww6yZa7ckMoholx8NdV27MbKk+v45N7tY4rXVXp667u5ePi5knl09fuqIBZvQV7UqUv3XxMtKNDblqAGnF9AfPb0Otl7vufDT0++Kiq3q8uVyS3lQ0B9Y+rhwyiR8MGilw17EC6YjKFm2P0jX3uJqb1w1R4ZDe8cAqlcnuzG6p/Qfu55d+IjBn5R3WN0QM2HNcXMD+ul4vvf9b6+ERy71cpQLxOv9s0N+f3Ld9/Xna/unzjnvBO2FfvirtCj4ZN0+4pCR2ZnatPU4Obof31csaVriaTjRee8017NC56zvZVZOMwV/MPHbDuuL6A+W3q9TLv/c+mHh98TNXuV5eptbNYyKCN69EAAAAAAACWih4NAAAAAACgNgQNAAAAAACgNgQNAAAAAACgNgQNAAAAAACgNgQNAAAAAACgNgQNAAAAAACgNgQNAAAAAACgNgQNAAAAAACgNgQNAAAAAACgNgQNAAAAAACgNgQNAAAAAACgNgQNAAAAAACgNgQNAAAAAACgNgQNAAAAAACgNgQNAAAAAACgNgQNAAAAAACgNgQNAAAAAACgNgQNAAAAAACgNgQNAAAAAACgNgQNAAAAAACgNgQNAAAAAACgNgQNAAAAAACgNgQNAAAAAACgNgQNAAAAAACgNgQNAAAAAACgNgQNAAAAAACgNgQNAAAAAACgNgQNAAAAAACgNgQNAAAAAACgNgQNAAAAAACgNgQNAAAAAACgNgQNwEaK5H7TUOO+pe778joAAAAAuLqrBw3pD3phfamjxpfqdf+vvHa69Ef13T+o18h+bvh4EZUbAtfktavG/eIH7kju/YYa9xuyXqbl1jfH6xMF7yQplheu0QW4qa8XAAAAsEauHDT8HP5Fp3H27394L/S3coOy9Af1Wn/Un4Of9I/yOuCj21HrdnnZDfbpnpwtSTLy7XZ57RrYsNcLAAAAWCNXDhp+Yf+Ldkz271/6X+ifyw1K/vbk+1HAsON/q0eD/x49vljHzzm4oe7o7lb2r51PmuWVN0hbvYcDDZ711VnrD+yb8noBAAAA6+PKQYOav9UX/SwocDu/Kq8t+VFvgvyf5iv966XtgWvyyV3leRnWAa8XAAAAsPIqBg0/6kWpvsJR40sdWT/o53LTmyBy1Wg0ZHVTKY3kWg01GvnDchVNHRKeKuq6soptG5bcbqTJ5pHc4bYjV1berhtJSruj57K6U56ksD7bF0vu9J3BvLbu6s7EAqO7n0wsWLKs1oD1MpVeu7KGdQheS3rfzQs3TqtDkCp66crK1w/rF7gvy+db1rY70S57uK/L7XJ5PQTrZSq9HxaPzB/fuIo+ZhHJqq9X2s2uMcvVGlWkAAAAANbSrbOzsw/lhdvb2+VFuR/1ovFHnZYXm6/0u/5v9Yvy8pHCz13adoVErhp2IOM4UhAoL0kxZnwl/Y6KHbYjtyF72HujzAk16A3HiURyG7ZOy9t2fPmnnrzxAoWDnkajS/J9mmpi+1gvkdz7tk53HelV4XzY9eX/ryfv3XCBo/DZ+HyI/tSQ/Wq4rmQ31ODr4vmQqvtNq7CtjPNgoN6nk8ukPGh4GsiU92loy1fycPL8X1XF69L4ifqdddhrAAAAYD1V7NHwmb4Y1Vb4vXbKqycUez8Uwon4e323Zr0h4iBQLCM/TDQYDDRIfDmSFD9XeO5rYyPHD5Ukg6ztYKBBEmbtg8cqd1CIg0Cx8ZUMhm08ebGjcDBQ6EjSqZLRz0Ry7UCSIz/J92W4fTN9+6sk7VqFXh4zHu74++aq7W+C+FWgeMtX8iw/H1558t45Cp8NFO4qOx8mehIYOXuhkqOBBs/yx9HwZx+Xpq5sqvNw3C7Zm28QQvwqP/8fJPn28/P/3XOFH7NXQwXtAz8bcmEcHRIyAAAAAEtVMWjYVEZ+0lennX9AaXa0lyUNevN2smW711ev01az+Fmm2c7bT2PkH3fU1B3dzT/3Gf9g3IOhIO0+ViAjP+mpU3yCZlu9Y19GsZ6fTz6wVoz8f8/Ph7zIodmbfj5IUvvrvnqft9UsFnS83dbebuH/CzPyj/rqfJqfc7c7+fZjvfl7qemqanbUHww06Bd6BwEAAABYiiUGDTN6P5iv9LvCjBOP1mEYhXOo8pegd4apwDnTajRcMJzC7Mue2Pbsb1zfvoklxfJaU77Zb3mKJcXl5GOFNDv9cS+MWY/C0I+q7W+ErX3ZE7NAODr8fPr5kJlWo+GC4RRXsXt4bmaKO5/MOv8BAAAAbLolBg2bKFXXasn2AsXnBrQvKlVyrjgGNltWc8E+CRSX6i4AAAAAwMdC0FCn6ElexNFRWKzRMKq3sIimWjvKh3FM+WZ/Db7hr1pzoWr7jfP6SV7Y0VFYrNEwqucAAAAAANePoKFGad7lwPgHGpZzqFM2XIM6DMikf8/Pt70DtUtDGwAAAADgYyFoWIL4eahRFJBGcq0LajRU0LT3ZSTF3j253Wj8HGuias2Fqu03Vfw/hfPtfST3m5prNNwEaVdWo6GG5WqD+8AAAAAA16JS0PBz9w/jaSlnTVm5BtNVLsswCFDsqTXs2t+yFcSSqaN2XrOjYz/r1RB49vg5Rg9rpae3RL2av87Pt3eeWsNCkI9sBe8kk89YMeF9V1ahYGTrJCskEjwdL7Ne3swTKHqSFUtVHOgxFwkAAACwVJWCBlyi2VE/8eUUQgVjHIVJouP9OpKG7Fv+JPTl1JJcYK3d7qh/5MsphApmy1F4lOj4N5wfRe0DPwtlzOxZXQAAAADU49bZ2dmH8sLt7e3yIgAAAAAAgEvRowEAAAAAANRmTXs0RHIbtmqorziDkZ/0tb49rDk+9Yrk3l/y8Tzqq7O2M0dwfAAAAACM0aMBAAAAAADUZk17NAAAAAAAgFVEjwYAAAAAAFAbggYAAAAAAFAbggYAAAAAAFAbggYAAAAAAFAbggYAAAAAAFAbgoalieRaDTUalrppeV3NIleWG2n606SKXEtuVF4OAAAAAED9CBqWJTpREEtSLO/JEj/lR64adqD4NCmvyb3VyWmswG4QNgAAAAAAlo6gYVnae3KMJBn5B+3y2nqkXVl2IMlR2O+oWV4vSWqr1w/lSArsa+hdAQAAAADYaLfOzs4+lBdub2+XF2HlpOpaLXmxkZ/01ZmeMozlPR9kfCUzQwkAAAAAABZDj4Z1FT2RF0vGP748ZJCkdk+hIyn2tMyRHAAAAACAzbZBQUMkt9GQ1U2z4omNvFBjlA1ByAo35usnpIq6rqx8ffaw5HanFV9M1Z1olz1m1kaI3PFzpsPikfnDchWdf4Jcqu7jbMjE4VwpQ6Z94MtICh53p+w7AAAAAACL26CgIffmiSw7UCxlhRpPuure8/LCjVLsPVExF4jclmwvUJyvz8QKPFutmQlCRW+eyGrZo32QJMWB7HszAoE01PNYkrOnStUfmh0dOpLi5wqnbhgAAAAAgMVsXNAQB4Fi4ysZZAUSFXjyYkfhYJANLdCpkokP4UaOHypJBhoM8kcy/NnHpeKKTXX643aJb4orZ4qDQLGM/DDJt+9n258RCKThc2U5Q6WYQZJ0566RFOv5tA0DAAAAALCgjQsaJCP/uKOm7uhungMY/2Bmz4B2r69ep61mcYRCs609p/D/heUFHdv5kzQ7+fZjvXlbairp7ZtYktHdO+U1l2va+zKS4mkbBgAAAABgQZsXNJh92RNlDS6rczCtRkNDdlButwDn8FxBx6znwTSpktPyMgAAAAAAVsPmBQ2VZFNInq/RAAAAAAAApiFouEg+haTkKCzWaBjVc/gYmmrtlJcBAAAAALAaCBoukOZjFIx/oGH5hFUwLOh4pTILb98olmSuUuABAAAAAIBLEDTMIX4ejqeZTCO5Vs01Gipq5l0agpPq02tGJ4Eko/3JQhUAAAAAANSCoOECwxkaFHtqDQtBtmwFsWSm1WpMu7IKBSNb2bgLBfZ4mTU5H+bVtA/kG0nBiapFDZGynKFcEBMAAAAAgHoQNFyk2VE/8eUUQgVjHIVJouP9aUnDdWnK3jeSAtnu/FFD2n2sQJJz2BE5AwAAAABgGW6dnZ19KC/c3t4uL8LKyWbE8GIjP+mfmx7znLQrq+UpNr6SPkEDAAAAAGA56NGwtprqHPsyiuW13EuGUERyW55iGfnHhAwAAAAAgOUhaFhnzY76oZMNobC644KVE1J1LVuBjJxwjp4PAAAAAAAsgKBh3bV7SkJHZqc1s6dCaycLGXrt8hoAAAAAAOpFjQYAAAAAAFAbejQAAAAAAIDaEDQAAAAAAIDa/D8+aTxyjcLcOQAAAABJRU5ErkJggg==;" vertex="1" parent="1">
          <mxGeometry x="433" y="1650" width="1050" height="511" as="geometry" />
        </mxCell>
      </root>
    </mxGraphModel>
  </diagram>
</mxfile>
